<?xml version="1.0" encoding="utf-8"?>
<!-- Generator: Adobe Illustrator 23.0.1, SVG Export Plug-In . SVG Version: 6.00 Build 0)  -->
<svg version="1.1" id="Camada_1" xmlns="http://www.w3.org/2000/svg" xmlns:xlink="http://www.w3.org/1999/xlink" x="0px" y="0px"
	 viewBox="0 0 19.7 12.8" style="enable-background:new 0 0 19.7 12.8;" xml:space="preserve">
<style type="text/css">
	.st0{fill:#73AF00;}
	.st1{fill:#FFE15A;}
	.st2{fill:#41479B;}
	.st3{fill:#FFFFFF;}
</style>
<g>
	<path class="st0" d="M19.3,12.8H0.4c-0.2,0-0.4-0.2-0.4-0.4V0.4C0,0.2,0.2,0,0.4,0h18.9c0.2,0,0.4,0.2,0.4,0.4v12.1
		C19.7,12.7,19.5,12.8,19.3,12.8z"/>
	<path class="st1" d="M9.5,1.9l-7,4.2c0,0-0.4,0.2,0,0.6c0.4,0.4,7.1,4.3,7.1,4.3s0.2,0.2,0.5,0c0.2-0.2,7.2-4.4,7.2-4.4
		s0.2-0.2,0-0.5C17,6,10.2,1.9,10.2,1.9S9.8,1.8,9.5,1.9z"/>
	<circle class="st2" cx="9.9" cy="6.5" r="2.7"/>
	<path class="st3" d="M7.6,5.1c0,0,2.9-0.2,5,1.6c0,0-0.1,0.5-0.2,0.7c0,0-2.4-1.8-5.1-1.7C7.3,5.8,7.5,5.3,7.6,5.1z"/>
	<polygon class="st3" points="10,7.5 10.1,7.6 10.3,7.7 10.1,7.8 10.2,8 10,7.9 9.8,8 9.9,7.8 9.7,7.7 9.9,7.6 	"/>
	<polygon class="st3" points="9.6,7 9.7,7.1 9.7,7.1 9.7,7.2 9.7,7.2 9.6,7.2 9.5,7.2 9.5,7.2 9.5,7.1 9.6,7.1 	"/>
	<polygon class="st3" points="9.3,7.9 9.3,8 9.4,8 9.4,8.1 9.4,8.2 9.3,8.1 9.2,8.2 9.2,8.1 9.2,8 9.3,8 	"/>
	<polygon class="st3" points="8.4,7.5 8.4,7.5 8.5,7.6 8.4,7.6 8.5,7.7 8.4,7.7 8.3,7.7 8.3,7.6 8.3,7.6 8.3,7.5 	"/>
	<polygon class="st3" points="10.8,8 10.9,8.1 11,8.1 10.9,8.2 10.9,8.2 10.8,8.2 10.8,8.2 10.8,8.2 10.7,8.1 10.8,8.1 	"/>
	<polygon class="st3" points="8.4,6.8 8.5,6.9 8.5,6.9 8.5,6.9 8.5,7 8.4,7 8.4,7 8.4,6.9 8.3,6.9 8.4,6.9 	"/>
	<polygon class="st3" points="7.8,6.9 7.9,7 7.9,7 7.9,7 7.9,7.1 7.8,7.1 7.8,7.1 7.8,7 7.7,7 7.8,7 	"/>
	<polygon class="st3" points="8,6.4 8,6.4 8.1,6.4 8,6.5 8,6.6 8,6.5 7.9,6.6 7.9,6.5 7.9,6.4 7.9,6.4 	"/>
	<polygon class="st3" points="10.9,5.2 11,5.3 11,5.3 11,5.4 11,5.5 10.9,5.4 10.8,5.5 10.9,5.4 10.8,5.3 10.9,5.3 	"/>
	<polygon class="st3" points="11.3,8 11.3,8.1 11.4,8.1 11.3,8.1 11.3,8.2 11.3,8.1 11.2,8.2 11.2,8.1 11.2,8.1 11.2,8.1 	"/>
	<polygon class="st3" points="11.6,7.5 11.6,7.5 11.7,7.6 11.7,7.6 11.7,7.7 11.6,7.7 11.5,7.7 11.5,7.6 11.5,7.6 11.6,7.5 	"/>
</g>
</svg>
