<?xml version="1.0" encoding="utf-8"?>
<!-- Generator: Adobe Illustrator 23.0.1, SVG Export Plug-In . SVG Version: 6.00 Build 0)  -->
<svg version="1.1" id="Camada_1" xmlns="http://www.w3.org/2000/svg" xmlns:xlink="http://www.w3.org/1999/xlink" x="0px" y="0px"
	 viewBox="0 0 568.6 96.9" style="enable-background:new 0 0 568.6 96.9;" xml:space="preserve">
<style type="text/css">
	.st0{fill:#FFFFFF;}
	.st1{clip-path:url(#SVGID_2_);}
	.st2{fill:#24A84A;}
	.st3{fill:#1E94D2;}
	.st4{clip-path:url(#SVGID_4_);}
	.st5{fill:#B0AFB3;}
	.st6{fill:#D8D8DC;}
	.st7{fill:#E6E7E8;}
	.st8{fill:#E9EFEE;}
	.st9{fill:#0B2D3D;}
	.st10{fill:#9F9F9F;}
	.st11{fill:#939393;}
	.st12{fill-rule:evenodd;clip-rule:evenodd;fill:#FFFFFF;}
	.st13{fill:#DDDDDD;}
</style>
<g>
	<g>
		<path class="st0" d="M185.6,90.6h-4.6l-0.9,2.6h-2.8l4.8-12.8h2.4l4.8,12.8h-2.8L185.6,90.6z M181.7,88.5h3.2l-1.6-4.8L181.7,88.5
			z"/>
		<path class="st0" d="M195.4,90.6c0-0.3-0.2-0.6-0.5-0.7c-0.3-0.2-0.8-0.3-1.5-0.5c-2.3-0.5-3.4-1.4-3.4-2.9c0-0.8,0.3-1.5,1-2.1
			c0.7-0.6,1.6-0.8,2.7-0.8c1.2,0,2.2,0.3,2.9,0.9c0.7,0.6,1.1,1.3,1.1,2.2h-2.5c0-0.4-0.1-0.7-0.4-0.9c-0.2-0.2-0.6-0.4-1.1-0.4
			c-0.4,0-0.8,0.1-1,0.3c-0.2,0.2-0.4,0.4-0.4,0.7c0,0.3,0.1,0.5,0.4,0.7c0.3,0.2,0.7,0.3,1.3,0.4c0.6,0.1,1.2,0.3,1.6,0.4
			c1.3,0.5,2,1.3,2,2.6c0,0.9-0.4,1.6-1.1,2.1c-0.7,0.5-1.7,0.8-2.9,0.8c-0.8,0-1.5-0.1-2.1-0.4c-0.6-0.3-1.1-0.7-1.5-1.2
			c-0.4-0.5-0.5-1-0.5-1.6h2.4c0,0.5,0.2,0.8,0.5,1s0.7,0.4,1.2,0.4c0.5,0,0.9-0.1,1.1-0.3C195.3,91.2,195.4,90.9,195.4,90.6z"/>
		<path class="st0" d="M204.7,90.6c0-0.3-0.2-0.6-0.5-0.7c-0.3-0.2-0.8-0.3-1.5-0.5c-2.3-0.5-3.4-1.4-3.4-2.9c0-0.8,0.3-1.5,1-2.1
			c0.7-0.6,1.6-0.8,2.7-0.8c1.2,0,2.2,0.3,2.9,0.9c0.7,0.6,1.1,1.3,1.1,2.2h-2.5c0-0.4-0.1-0.7-0.4-0.9c-0.2-0.2-0.6-0.4-1.1-0.4
			c-0.4,0-0.8,0.1-1,0.3c-0.2,0.2-0.4,0.4-0.4,0.7c0,0.3,0.1,0.5,0.4,0.7c0.3,0.2,0.7,0.3,1.3,0.4c0.6,0.1,1.2,0.3,1.6,0.4
			c1.3,0.5,2,1.3,2,2.6c0,0.9-0.4,1.6-1.1,2.1c-0.7,0.5-1.7,0.8-2.9,0.8c-0.8,0-1.5-0.1-2.1-0.4c-0.6-0.3-1.1-0.7-1.5-1.2
			c-0.4-0.5-0.5-1-0.5-1.6h2.4c0,0.5,0.2,0.8,0.5,1c0.3,0.2,0.7,0.4,1.2,0.4c0.5,0,0.9-0.1,1.1-0.3
			C204.5,91.2,204.7,90.9,204.7,90.6z"/>
		<path class="st0" d="M208.4,88.4c0-0.9,0.2-1.8,0.5-2.5c0.4-0.7,0.9-1.3,1.6-1.7c0.7-0.4,1.5-0.6,2.4-0.6c1.3,0,2.3,0.4,3.1,1.2
			c0.8,0.8,1.3,1.8,1.4,3.2l0,0.6c0,1.5-0.4,2.6-1.2,3.5s-1.9,1.3-3.3,1.3c-1.4,0-2.5-0.4-3.3-1.3c-0.8-0.9-1.2-2.1-1.2-3.6V88.4z
			 M210.9,88.6c0,0.9,0.2,1.6,0.5,2.1c0.3,0.5,0.8,0.7,1.5,0.7c0.6,0,1.1-0.2,1.4-0.7c0.3-0.5,0.5-1.2,0.5-2.3
			c0-0.9-0.2-1.6-0.5-2.1c-0.3-0.5-0.8-0.7-1.5-0.7c-0.6,0-1.1,0.2-1.4,0.7C211.1,86.8,210.9,87.6,210.9,88.6z"/>
		<path class="st0" d="M222.9,91.4c0.5,0,0.8-0.1,1.1-0.4c0.3-0.3,0.4-0.6,0.5-1h2.4c0,0.6-0.2,1.2-0.5,1.8c-0.3,0.5-0.8,1-1.4,1.2
			c-0.6,0.3-1.3,0.4-2,0.4c-1.4,0-2.4-0.4-3.2-1.3c-0.8-0.9-1.2-2.1-1.2-3.6v-0.2c0-1.5,0.4-2.6,1.2-3.5s1.8-1.3,3.2-1.3
			c1.2,0,2.1,0.3,2.9,1c0.7,0.7,1.1,1.6,1.1,2.7h-2.4c0-0.5-0.2-0.9-0.5-1.2s-0.7-0.5-1.2-0.5c-0.6,0-1,0.2-1.3,0.6
			c-0.3,0.4-0.5,1.1-0.5,2.1v0.3c0,1,0.1,1.7,0.4,2.1C221.8,91.2,222.3,91.4,222.9,91.4z"/>
		<path class="st0" d="M228.3,81.3c0-0.4,0.1-0.7,0.4-0.9c0.3-0.2,0.6-0.4,1-0.4c0.4,0,0.8,0.1,1,0.4c0.3,0.2,0.4,0.6,0.4,0.9
			c0,0.4-0.1,0.7-0.4,0.9s-0.6,0.4-1,0.4c-0.4,0-0.8-0.1-1-0.4C228.4,82,228.3,81.7,228.3,81.3z M231,93.3h-2.5v-9.5h2.5V93.3z"/>
		<path class="st0" d="M238.6,93.3c-0.1-0.2-0.2-0.5-0.3-0.9c-0.6,0.7-1.4,1-2.4,1c-0.9,0-1.7-0.3-2.3-0.8s-0.9-1.2-0.9-2
			c0-1,0.4-1.8,1.1-2.3c0.7-0.5,1.8-0.8,3.2-0.8h1.2v-0.5c0-0.4-0.1-0.8-0.3-1.1c-0.2-0.3-0.6-0.4-1.1-0.4c-0.4,0-0.8,0.1-1,0.3
			c-0.2,0.2-0.4,0.5-0.4,0.8h-2.5c0-0.6,0.2-1.1,0.5-1.5c0.3-0.5,0.8-0.8,1.4-1.1c0.6-0.3,1.3-0.4,2.1-0.4c1.2,0,2.1,0.3,2.8,0.9
			c0.7,0.6,1,1.4,1,2.5v4.1c0,0.9,0.1,1.6,0.4,2v0.1H238.6z M236.5,91.5c0.4,0,0.7-0.1,1-0.3c0.3-0.2,0.6-0.4,0.7-0.7v-1.6h-0.9
			c-1.3,0-1.9,0.4-2,1.3l0,0.1c0,0.3,0.1,0.6,0.3,0.8C235.8,91.4,236.1,91.5,236.5,91.5z"/>
		<path class="st0" d="M246.7,91.4c0.5,0,0.8-0.1,1.1-0.4c0.3-0.3,0.4-0.6,0.5-1h2.4c0,0.6-0.2,1.2-0.5,1.8c-0.3,0.5-0.8,1-1.4,1.2
			c-0.6,0.3-1.3,0.4-2,0.4c-1.4,0-2.4-0.4-3.2-1.3c-0.8-0.9-1.2-2.1-1.2-3.6v-0.2c0-1.5,0.4-2.6,1.2-3.5s1.8-1.3,3.2-1.3
			c1.2,0,2.1,0.3,2.9,1c0.7,0.7,1.1,1.6,1.1,2.7h-2.4c0-0.5-0.2-0.9-0.5-1.2s-0.7-0.5-1.2-0.5c-0.6,0-1,0.2-1.3,0.6
			c-0.3,0.4-0.5,1.1-0.5,2.1v0.3c0,1,0.1,1.7,0.4,2.1C245.6,91.2,246.1,91.4,246.7,91.4z M247.6,93.2l-0.1,0.5
			c0.9,0.2,1.3,0.7,1.3,1.5c0,0.6-0.3,1.2-0.8,1.5c-0.5,0.4-1.3,0.6-2.3,0.6l-0.1-1.5c0.7,0,1-0.2,1-0.7c0-0.2-0.1-0.4-0.3-0.5
			c-0.2-0.1-0.5-0.2-1-0.2l0.3-1.3H247.6z"/>
		<path class="st0" d="M257.6,93.3c-0.1-0.2-0.2-0.5-0.3-0.9c-0.6,0.7-1.4,1-2.4,1c-0.9,0-1.7-0.3-2.3-0.8s-0.9-1.2-0.9-2
			c0-1,0.4-1.8,1.1-2.3c0.7-0.5,1.8-0.8,3.2-0.8h1.2v-0.5c0-0.4-0.1-0.8-0.3-1.1c-0.2-0.3-0.6-0.4-1.1-0.4c-0.4,0-0.8,0.1-1,0.3
			c-0.2,0.2-0.4,0.5-0.4,0.8h-2.5c0-0.6,0.2-1.1,0.5-1.5c0.3-0.5,0.8-0.8,1.4-1.1c0.6-0.3,1.3-0.4,2.1-0.4c1.2,0,2.1,0.3,2.8,0.9
			c0.7,0.6,1,1.4,1,2.5v4.1c0,0.9,0.1,1.6,0.4,2v0.1H257.6z M259.3,79.9c0,0.7-0.2,1.2-0.6,1.7c-0.4,0.4-0.9,0.7-1.4,0.7
			c-0.2,0-0.4,0-0.6-0.1c-0.2,0-0.4-0.2-0.7-0.3c-0.3-0.2-0.5-0.3-0.7-0.3s-0.3-0.1-0.4-0.1c-0.2,0-0.4,0.1-0.5,0.2
			c-0.1,0.1-0.2,0.4-0.2,0.6l-1.5-0.1c0-0.6,0.2-1.2,0.6-1.7c0.4-0.5,0.9-0.7,1.4-0.7c0.2,0,0.3,0,0.5,0.1c0.2,0,0.4,0.2,0.8,0.3
			s0.6,0.3,0.7,0.3c0.1,0,0.3,0.1,0.4,0.1c0.2,0,0.4-0.1,0.5-0.2c0.2-0.1,0.2-0.3,0.2-0.6L259.3,79.9z M255.5,91.5
			c0.4,0,0.7-0.1,1-0.3c0.3-0.2,0.6-0.4,0.7-0.7v-1.6h-0.9c-1.3,0-1.9,0.4-2,1.3l0,0.1c0,0.3,0.1,0.6,0.3,0.8
			C254.8,91.4,255.1,91.5,255.5,91.5z"/>
		<path class="st0" d="M261.3,88.4c0-0.9,0.2-1.8,0.5-2.5c0.4-0.7,0.9-1.3,1.6-1.7c0.7-0.4,1.5-0.6,2.4-0.6c1.3,0,2.3,0.4,3.1,1.2
			c0.8,0.8,1.3,1.8,1.4,3.2l0,0.6c0,1.5-0.4,2.6-1.2,3.5c-0.8,0.9-1.9,1.3-3.3,1.3c-1.4,0-2.5-0.4-3.3-1.3c-0.8-0.9-1.2-2.1-1.2-3.6
			V88.4z M263.9,88.6c0,0.9,0.2,1.6,0.5,2.1c0.3,0.5,0.8,0.7,1.5,0.7c0.6,0,1.1-0.2,1.4-0.7c0.3-0.5,0.5-1.2,0.5-2.3
			c0-0.9-0.2-1.6-0.5-2.1c-0.3-0.5-0.8-0.7-1.5-0.7c-0.6,0-1.1,0.2-1.4,0.7C264,86.8,263.9,87.6,263.9,88.6z"/>
		<path class="st0" d="M276,88.4c0-1.5,0.3-2.7,1-3.5c0.7-0.9,1.6-1.3,2.7-1.3c0.9,0,1.7,0.3,2.3,1v-4.8h2.5v13.5h-2.3l-0.1-1
			c-0.6,0.8-1.4,1.2-2.4,1.2c-1.1,0-2-0.4-2.7-1.3C276.3,91.2,276,90,276,88.4z M278.5,88.6c0,0.9,0.2,1.6,0.5,2
			c0.3,0.5,0.8,0.7,1.4,0.7c0.8,0,1.3-0.3,1.7-1v-3.8c-0.3-0.7-0.9-1-1.6-1C279.1,85.6,278.5,86.6,278.5,88.6z"/>
		<path class="st0" d="M292,93.3c-0.1-0.2-0.2-0.5-0.3-0.9c-0.6,0.7-1.4,1-2.4,1c-0.9,0-1.7-0.3-2.3-0.8c-0.6-0.5-0.9-1.2-0.9-2
			c0-1,0.4-1.8,1.1-2.3c0.7-0.5,1.8-0.8,3.2-0.8h1.2v-0.5c0-0.4-0.1-0.8-0.3-1.1c-0.2-0.3-0.6-0.4-1.1-0.4c-0.4,0-0.8,0.1-1,0.3
			c-0.2,0.2-0.4,0.5-0.4,0.8h-2.5c0-0.6,0.2-1.1,0.5-1.5c0.3-0.5,0.8-0.8,1.4-1.1c0.6-0.3,1.3-0.4,2.1-0.4c1.2,0,2.1,0.3,2.8,0.9
			c0.7,0.6,1,1.4,1,2.5v4.1c0,0.9,0.1,1.6,0.4,2v0.1H292z M289.9,91.5c0.4,0,0.7-0.1,1-0.3c0.3-0.2,0.6-0.4,0.7-0.7v-1.6h-0.9
			c-1.3,0-1.9,0.4-2,1.3l0,0.1c0,0.3,0.1,0.6,0.3,0.8S289.5,91.5,289.9,91.5z"/>
		<path class="st0" d="M301.3,90.6c0-0.3-0.2-0.6-0.5-0.7c-0.3-0.2-0.8-0.3-1.5-0.5c-2.3-0.5-3.4-1.4-3.4-2.9c0-0.8,0.3-1.5,1-2.1
			c0.7-0.6,1.6-0.8,2.7-0.8c1.2,0,2.2,0.3,2.9,0.9c0.7,0.6,1.1,1.3,1.1,2.2h-2.5c0-0.4-0.1-0.7-0.4-0.9c-0.2-0.2-0.6-0.4-1.1-0.4
			c-0.4,0-0.8,0.1-1,0.3c-0.2,0.2-0.4,0.4-0.4,0.7c0,0.3,0.1,0.5,0.4,0.7c0.3,0.2,0.7,0.3,1.3,0.4c0.6,0.1,1.2,0.3,1.6,0.4
			c1.3,0.5,2,1.3,2,2.6c0,0.9-0.4,1.6-1.1,2.1c-0.7,0.5-1.7,0.8-2.9,0.8c-0.8,0-1.5-0.1-2.1-0.4c-0.6-0.3-1.1-0.7-1.5-1.2
			c-0.4-0.5-0.5-1-0.5-1.6h2.4c0,0.5,0.2,0.8,0.5,1s0.7,0.4,1.2,0.4c0.5,0,0.9-0.1,1.1-0.3C301.2,91.2,301.3,90.9,301.3,90.6z"/>
		<path class="st0" d="M312.7,88.7v4.5H310V80.5h5c1,0,1.8,0.2,2.5,0.5c0.7,0.4,1.3,0.9,1.7,1.5c0.4,0.6,0.6,1.4,0.6,2.2
			c0,1.3-0.4,2.2-1.3,3c-0.9,0.7-2,1.1-3.6,1.1H312.7z M312.7,86.6h2.4c0.7,0,1.2-0.2,1.6-0.5c0.4-0.3,0.5-0.8,0.5-1.4
			c0-0.6-0.2-1.1-0.6-1.5c-0.4-0.4-0.9-0.6-1.5-0.6h-2.4V86.6z"/>
		<path class="st0" d="M320.9,88.4c0-0.9,0.2-1.8,0.5-2.5c0.4-0.7,0.9-1.3,1.6-1.7c0.7-0.4,1.5-0.6,2.4-0.6c1.3,0,2.3,0.4,3.1,1.2
			c0.8,0.8,1.3,1.8,1.4,3.2l0,0.6c0,1.5-0.4,2.6-1.2,3.5c-0.8,0.9-1.9,1.3-3.3,1.3s-2.5-0.4-3.3-1.3c-0.8-0.9-1.2-2.1-1.2-3.6V88.4z
			 M323.5,88.6c0,0.9,0.2,1.6,0.5,2.1c0.3,0.5,0.8,0.7,1.5,0.7c0.6,0,1.1-0.2,1.4-0.7c0.3-0.5,0.5-1.2,0.5-2.3
			c0-0.9-0.2-1.6-0.5-2.1c-0.3-0.5-0.8-0.7-1.5-0.7c-0.6,0-1.1,0.2-1.4,0.7C323.7,86.8,323.5,87.6,323.5,88.6z"/>
		<path class="st0" d="M334.2,93.3h-2.5V79.8h2.5V93.3z"/>
		<path class="st0" d="M339,93.3h-2.5v-9.5h2.5V93.3z M338.3,79.9h2.8l-2.4,2.7h-2.1L338.3,79.9z"/>
		<path class="st0" d="M345.1,91.4c0.5,0,0.8-0.1,1.1-0.4c0.3-0.3,0.4-0.6,0.5-1h2.4c0,0.6-0.2,1.2-0.5,1.8c-0.3,0.5-0.8,1-1.4,1.2
			c-0.6,0.3-1.3,0.4-2,0.4c-1.4,0-2.4-0.4-3.2-1.3c-0.8-0.9-1.2-2.1-1.2-3.6v-0.2c0-1.5,0.4-2.6,1.2-3.5s1.8-1.3,3.2-1.3
			c1.2,0,2.1,0.3,2.9,1c0.7,0.7,1.1,1.6,1.1,2.7h-2.4c0-0.5-0.2-0.9-0.5-1.2c-0.3-0.3-0.7-0.5-1.2-0.5c-0.6,0-1,0.2-1.3,0.6
			c-0.3,0.4-0.5,1.1-0.5,2.1v0.3c0,1,0.1,1.7,0.4,2.1C344.1,91.2,344.5,91.4,345.1,91.4z"/>
		<path class="st0" d="M350.6,81.3c0-0.4,0.1-0.7,0.4-0.9c0.3-0.2,0.6-0.4,1-0.4c0.4,0,0.8,0.1,1,0.4c0.3,0.2,0.4,0.6,0.4,0.9
			c0,0.4-0.1,0.7-0.4,0.9s-0.6,0.4-1,0.4s-0.8-0.1-1-0.4C350.7,82,350.6,81.7,350.6,81.3z M353.2,93.3h-2.5v-9.5h2.5V93.3z"/>
		<path class="st0" d="M360.8,93.3c-0.1-0.2-0.2-0.5-0.3-0.9c-0.6,0.7-1.4,1-2.4,1c-0.9,0-1.7-0.3-2.3-0.8c-0.6-0.5-0.9-1.2-0.9-2
			c0-1,0.4-1.8,1.1-2.3c0.7-0.5,1.8-0.8,3.2-0.8h1.2v-0.5c0-0.4-0.1-0.8-0.3-1.1c-0.2-0.3-0.6-0.4-1.1-0.4c-0.4,0-0.8,0.1-1,0.3
			c-0.2,0.2-0.4,0.5-0.4,0.8h-2.5c0-0.6,0.2-1.1,0.5-1.5c0.3-0.5,0.8-0.8,1.4-1.1c0.6-0.3,1.3-0.4,2.1-0.4c1.2,0,2.1,0.3,2.8,0.9
			c0.7,0.6,1,1.4,1,2.5v4.1c0,0.9,0.1,1.6,0.4,2v0.1H360.8z M358.7,91.5c0.4,0,0.7-0.1,1-0.3c0.3-0.2,0.6-0.4,0.7-0.7v-1.6h-0.9
			c-1.3,0-1.9,0.4-2,1.3l0,0.1c0,0.3,0.1,0.6,0.3,0.8S358.4,91.5,358.7,91.5z"/>
		<path class="st0" d="M370.1,90.6c0-0.3-0.2-0.6-0.5-0.7c-0.3-0.2-0.8-0.3-1.5-0.5c-2.3-0.5-3.4-1.4-3.4-2.9c0-0.8,0.3-1.5,1-2.1
			c0.7-0.6,1.6-0.8,2.7-0.8c1.2,0,2.2,0.3,2.9,0.9c0.7,0.6,1.1,1.3,1.1,2.2H370c0-0.4-0.1-0.7-0.4-0.9c-0.2-0.2-0.6-0.4-1.1-0.4
			c-0.4,0-0.8,0.1-1,0.3c-0.2,0.2-0.4,0.4-0.4,0.7c0,0.3,0.1,0.5,0.4,0.7c0.3,0.2,0.7,0.3,1.3,0.4c0.6,0.1,1.2,0.3,1.6,0.4
			c1.3,0.5,2,1.3,2,2.6c0,0.9-0.4,1.6-1.1,2.1c-0.7,0.5-1.7,0.8-2.9,0.8c-0.8,0-1.5-0.1-2.1-0.4c-0.6-0.3-1.1-0.7-1.5-1.2
			c-0.4-0.5-0.5-1-0.5-1.6h2.4c0,0.5,0.2,0.8,0.5,1c0.3,0.2,0.7,0.4,1.2,0.4c0.5,0,0.9-0.1,1.1-0.3C370,91.2,370.1,90.9,370.1,90.6z
			"/>
		<path class="st0" d="M378.3,88.4c0-1.5,0.3-2.7,1-3.5c0.7-0.9,1.6-1.3,2.7-1.3c0.9,0,1.7,0.3,2.3,1v-4.8h2.5v13.5h-2.3l-0.1-1
			c-0.6,0.8-1.4,1.2-2.4,1.2c-1.1,0-2-0.4-2.7-1.3C378.6,91.2,378.3,90,378.3,88.4z M380.8,88.6c0,0.9,0.2,1.6,0.5,2
			c0.3,0.5,0.8,0.7,1.4,0.7c0.8,0,1.3-0.3,1.7-1v-3.8c-0.3-0.7-0.9-1-1.6-1C381.5,85.6,380.8,86.6,380.8,88.6z"/>
		<path class="st0" d="M388.4,88.4c0-0.9,0.2-1.8,0.5-2.5c0.4-0.7,0.9-1.3,1.6-1.7c0.7-0.4,1.5-0.6,2.4-0.6c1.3,0,2.3,0.4,3.1,1.2
			c0.8,0.8,1.3,1.8,1.4,3.2l0,0.6c0,1.5-0.4,2.6-1.2,3.5c-0.8,0.9-1.9,1.3-3.3,1.3s-2.5-0.4-3.3-1.3c-0.8-0.9-1.2-2.1-1.2-3.6V88.4z
			 M391,88.6c0,0.9,0.2,1.6,0.5,2.1c0.3,0.5,0.8,0.7,1.5,0.7c0.6,0,1.1-0.2,1.4-0.7c0.3-0.5,0.5-1.2,0.5-2.3c0-0.9-0.2-1.6-0.5-2.1
			c-0.3-0.5-0.8-0.7-1.5-0.7c-0.6,0-1.1,0.2-1.4,0.7C391.1,86.8,391,87.6,391,88.6z"/>
		<path class="st0" d="M413.7,89c-0.1,1.4-0.6,2.5-1.5,3.2c-0.9,0.8-2.1,1.2-3.6,1.2c-1.6,0-2.9-0.6-3.9-1.7
			c-0.9-1.1-1.4-2.6-1.4-4.5v-0.8c0-1.2,0.2-2.3,0.6-3.2c0.4-0.9,1.1-1.7,1.9-2.2c0.8-0.5,1.7-0.8,2.8-0.8c1.5,0,2.7,0.4,3.6,1.2
			s1.4,1.9,1.6,3.3h-2.6c-0.1-0.8-0.3-1.4-0.7-1.8c-0.4-0.4-1-0.6-1.8-0.6c-0.9,0-1.5,0.3-2,0.9c-0.4,0.6-0.7,1.6-0.7,2.9v1
			c0,1.4,0.2,2.4,0.6,3c0.4,0.6,1.1,1,2,1c0.8,0,1.4-0.2,1.8-0.6c0.4-0.4,0.6-0.9,0.7-1.7H413.7z"/>
		<path class="st0" d="M414.8,88.4c0-0.9,0.2-1.8,0.5-2.5c0.4-0.7,0.9-1.3,1.6-1.7c0.7-0.4,1.5-0.6,2.4-0.6c1.3,0,2.3,0.4,3.1,1.2
			c0.8,0.8,1.3,1.8,1.4,3.2l0,0.6c0,1.5-0.4,2.6-1.2,3.5c-0.8,0.9-1.9,1.3-3.3,1.3c-1.4,0-2.5-0.4-3.3-1.3c-0.8-0.9-1.2-2.1-1.2-3.6
			V88.4z M417.4,88.6c0,0.9,0.2,1.6,0.5,2.1c0.3,0.5,0.8,0.7,1.5,0.7c0.6,0,1.1-0.2,1.4-0.7c0.3-0.5,0.5-1.2,0.5-2.3
			c0-0.9-0.2-1.6-0.5-2.1c-0.3-0.5-0.8-0.7-1.5-0.7c-0.6,0-1.1,0.2-1.4,0.7C417.5,86.8,417.4,87.6,417.4,88.6z"/>
		<path class="st0" d="M427.7,83.8l0.1,1.1c0.7-0.8,1.6-1.3,2.7-1.3c1,0,1.8,0.3,2.2,0.9c0.5,0.6,0.7,1.5,0.8,2.7v6.1H431v-6.1
			c0-0.5-0.1-0.9-0.4-1.2c-0.2-0.2-0.6-0.4-1.2-0.4c-0.7,0-1.2,0.3-1.6,0.9v6.7h-2.5v-9.5H427.7z"/>
		<path class="st0" d="M435.1,88.4c0-1.5,0.3-2.6,1-3.5c0.7-0.9,1.6-1.3,2.8-1.3c1,0,1.9,0.4,2.4,1.1l0.1-0.9h2.3v9.2
			c0,0.8-0.2,1.6-0.6,2.2c-0.4,0.6-0.9,1.1-1.6,1.4c-0.7,0.3-1.5,0.5-2.4,0.5c-0.7,0-1.4-0.1-2-0.4c-0.7-0.3-1.2-0.6-1.5-1.1
			l1.1-1.5c0.6,0.7,1.4,1.1,2.3,1.1c0.7,0,1.2-0.2,1.6-0.5c0.4-0.4,0.6-0.9,0.6-1.5v-0.5c-0.6,0.7-1.4,1-2.3,1
			c-1.1,0-2.1-0.4-2.8-1.3c-0.7-0.9-1.1-2.1-1.1-3.6V88.4z M437.6,88.6c0,0.9,0.2,1.5,0.5,2c0.3,0.5,0.8,0.7,1.4,0.7
			c0.8,0,1.3-0.3,1.7-0.9v-4c-0.3-0.6-0.9-0.9-1.6-0.9c-0.6,0-1.1,0.2-1.4,0.7C437.8,86.9,437.6,87.6,437.6,88.6z"/>
		<path class="st0" d="M451.1,86.1c-0.3,0-0.6-0.1-0.9-0.1c-1,0-1.6,0.3-1.9,1v6.2h-2.5v-9.5h2.4l0.1,1.1c0.5-0.9,1.2-1.3,2.1-1.3
			c0.3,0,0.5,0,0.8,0.1L451.1,86.1z"/>
		<path class="st0" d="M456.5,93.4c-1.4,0-2.5-0.4-3.4-1.3c-0.9-0.9-1.3-2-1.3-3.4v-0.2c0-1,0.2-1.8,0.6-2.6
			c0.4-0.8,0.9-1.3,1.6-1.7c0.7-0.4,1.4-0.6,2.3-0.6c1.3,0,2.3,0.4,3.1,1.2c0.7,0.8,1.1,2,1.1,3.5v1h-6c0.1,0.6,0.3,1.1,0.7,1.5
			c0.4,0.4,0.9,0.6,1.6,0.6c1,0,1.7-0.4,2.3-1.1l1.2,1.4c-0.4,0.5-0.9,1-1.5,1.3C458,93.3,457.3,93.4,456.5,93.4z M456.2,85.6
			c-0.5,0-0.9,0.2-1.2,0.5c-0.3,0.3-0.5,0.8-0.6,1.5h3.5v-0.2c0-0.6-0.2-1-0.5-1.3C457.2,85.8,456.7,85.6,456.2,85.6z"/>
		<path class="st0" d="M467,90.6c0-0.3-0.2-0.6-0.5-0.7c-0.3-0.2-0.8-0.3-1.5-0.5c-2.3-0.5-3.4-1.4-3.4-2.9c0-0.8,0.3-1.5,1-2.1
			c0.7-0.6,1.6-0.8,2.7-0.8c1.2,0,2.2,0.3,2.9,0.9c0.7,0.6,1.1,1.3,1.1,2.2h-2.5c0-0.4-0.1-0.7-0.4-0.9c-0.2-0.2-0.6-0.4-1.1-0.4
			c-0.4,0-0.8,0.1-1,0.3c-0.2,0.2-0.4,0.4-0.4,0.7c0,0.3,0.1,0.5,0.4,0.7c0.3,0.2,0.7,0.3,1.3,0.4c0.6,0.1,1.2,0.3,1.6,0.4
			c1.3,0.5,2,1.3,2,2.6c0,0.9-0.4,1.6-1.1,2.1c-0.7,0.5-1.7,0.8-2.9,0.8c-0.8,0-1.5-0.1-2.1-0.4c-0.6-0.3-1.1-0.7-1.5-1.2
			c-0.4-0.5-0.5-1-0.5-1.6h2.4c0,0.5,0.2,0.8,0.5,1s0.7,0.4,1.2,0.4c0.5,0,0.9-0.1,1.1-0.3C466.9,91.2,467,90.9,467,90.6z"/>
		<path class="st0" d="M476.2,90.6c0-0.3-0.2-0.6-0.5-0.7c-0.3-0.2-0.8-0.3-1.5-0.5c-2.3-0.5-3.4-1.4-3.4-2.9c0-0.8,0.3-1.5,1-2.1
			c0.7-0.6,1.6-0.8,2.7-0.8c1.2,0,2.2,0.3,2.9,0.9c0.7,0.6,1.1,1.3,1.1,2.2h-2.5c0-0.4-0.1-0.7-0.4-0.9c-0.2-0.2-0.6-0.4-1.1-0.4
			c-0.4,0-0.8,0.1-1,0.3c-0.2,0.2-0.4,0.4-0.4,0.7c0,0.3,0.1,0.5,0.4,0.7c0.3,0.2,0.7,0.3,1.3,0.4c0.6,0.1,1.2,0.3,1.6,0.4
			c1.3,0.5,2,1.3,2,2.6c0,0.9-0.4,1.6-1.1,2.1c-0.7,0.5-1.7,0.8-2.9,0.8c-0.8,0-1.5-0.1-2.1-0.4c-0.6-0.3-1.1-0.7-1.5-1.2
			c-0.4-0.5-0.5-1-0.5-1.6h2.4c0,0.5,0.2,0.8,0.5,1c0.3,0.2,0.7,0.4,1.2,0.4c0.5,0,0.9-0.1,1.1-0.3
			C476.1,91.2,476.2,90.9,476.2,90.6z"/>
		<path class="st0" d="M479.9,88.4c0-0.9,0.2-1.8,0.5-2.5c0.4-0.7,0.9-1.3,1.6-1.7c0.7-0.4,1.5-0.6,2.4-0.6c1.3,0,2.3,0.4,3.1,1.2
			c0.8,0.8,1.3,1.8,1.4,3.2l0,0.6c0,1.5-0.4,2.6-1.2,3.5c-0.8,0.9-1.9,1.3-3.3,1.3s-2.5-0.4-3.3-1.3c-0.8-0.9-1.2-2.1-1.2-3.6V88.4z
			 M482.5,88.6c0,0.9,0.2,1.6,0.5,2.1c0.3,0.5,0.8,0.7,1.5,0.7c0.6,0,1.1-0.2,1.4-0.7c0.3-0.5,0.5-1.2,0.5-2.3
			c0-0.9-0.2-1.6-0.5-2.1c-0.3-0.5-0.8-0.7-1.5-0.7c-0.6,0-1.1,0.2-1.4,0.7C482.6,86.8,482.5,87.6,482.5,88.6z"/>
		<path class="st0" d="M505.5,93.3h-2.6l-5.1-8.4v8.4h-2.6V80.5h2.6l5.1,8.4v-8.4h2.6V93.3z"/>
		<path class="st0" d="M513.2,93.3c-0.1-0.2-0.2-0.5-0.3-0.9c-0.6,0.7-1.4,1-2.4,1c-0.9,0-1.7-0.3-2.3-0.8c-0.6-0.5-0.9-1.2-0.9-2
			c0-1,0.4-1.8,1.1-2.3c0.7-0.5,1.8-0.8,3.2-0.8h1.2v-0.5c0-0.4-0.1-0.8-0.3-1.1c-0.2-0.3-0.6-0.4-1.1-0.4c-0.4,0-0.8,0.1-1,0.3
			c-0.2,0.2-0.4,0.5-0.4,0.8h-2.5c0-0.6,0.2-1.1,0.5-1.5c0.3-0.5,0.8-0.8,1.4-1.1c0.6-0.3,1.3-0.4,2.1-0.4c1.2,0,2.1,0.3,2.8,0.9
			c0.7,0.6,1,1.4,1,2.5v4.1c0,0.9,0.1,1.6,0.4,2v0.1H513.2z M511.1,91.5c0.4,0,0.7-0.1,1-0.3c0.3-0.2,0.6-0.4,0.7-0.7v-1.6h-0.9
			c-1.3,0-1.9,0.4-2,1.3l0,0.1c0,0.3,0.1,0.6,0.3,0.8S510.7,91.5,511.1,91.5z"/>
		<path class="st0" d="M521.3,91.4c0.5,0,0.8-0.1,1.1-0.4c0.3-0.3,0.4-0.6,0.5-1h2.4c0,0.6-0.2,1.2-0.5,1.8c-0.3,0.5-0.8,1-1.4,1.2
			c-0.6,0.3-1.3,0.4-2,0.4c-1.4,0-2.4-0.4-3.2-1.3c-0.8-0.9-1.2-2.1-1.2-3.6v-0.2c0-1.5,0.4-2.6,1.2-3.5c0.8-0.9,1.8-1.3,3.2-1.3
			c1.2,0,2.1,0.3,2.9,1c0.7,0.7,1.1,1.6,1.1,2.7h-2.4c0-0.5-0.2-0.9-0.5-1.2s-0.7-0.5-1.2-0.5c-0.6,0-1,0.2-1.3,0.6
			c-0.3,0.4-0.5,1.1-0.5,2.1v0.3c0,1,0.1,1.7,0.4,2.1C520.2,91.2,520.6,91.4,521.3,91.4z"/>
		<path class="st0" d="M526.7,81.3c0-0.4,0.1-0.7,0.4-0.9c0.3-0.2,0.6-0.4,1-0.4c0.4,0,0.8,0.1,1,0.4c0.3,0.2,0.4,0.6,0.4,0.9
			c0,0.4-0.1,0.7-0.4,0.9s-0.6,0.4-1,0.4c-0.4,0-0.8-0.1-1-0.4C526.8,82,526.7,81.7,526.7,81.3z M529.4,93.3h-2.5v-9.5h2.5V93.3z"/>
		<path class="st0" d="M531,88.4c0-0.9,0.2-1.8,0.5-2.5c0.4-0.7,0.9-1.3,1.6-1.7c0.7-0.4,1.5-0.6,2.4-0.6c1.3,0,2.3,0.4,3.1,1.2
			s1.3,1.8,1.4,3.2l0,0.6c0,1.5-0.4,2.6-1.2,3.5s-1.9,1.3-3.3,1.3c-1.4,0-2.5-0.4-3.3-1.3c-0.8-0.9-1.2-2.1-1.2-3.6V88.4z
			 M533.6,88.6c0,0.9,0.2,1.6,0.5,2.1c0.3,0.5,0.8,0.7,1.5,0.7c0.6,0,1.1-0.2,1.4-0.7c0.3-0.5,0.5-1.2,0.5-2.3
			c0-0.9-0.2-1.6-0.5-2.1c-0.3-0.5-0.8-0.7-1.5-0.7c-0.6,0-1.1,0.2-1.4,0.7C533.8,86.8,533.6,87.6,533.6,88.6z"/>
		<path class="st0" d="M543.9,83.8l0.1,1.1c0.7-0.8,1.6-1.3,2.7-1.3c1,0,1.8,0.3,2.2,0.9c0.5,0.6,0.7,1.5,0.8,2.7v6.1h-2.5v-6.1
			c0-0.5-0.1-0.9-0.4-1.2c-0.2-0.2-0.6-0.4-1.2-0.4c-0.7,0-1.2,0.3-1.6,0.9v6.7h-2.5v-9.5H543.9z"/>
		<path class="st0" d="M557.2,93.3c-0.1-0.2-0.2-0.5-0.3-0.9c-0.6,0.7-1.4,1-2.4,1c-0.9,0-1.7-0.3-2.3-0.8c-0.6-0.5-0.9-1.2-0.9-2
			c0-1,0.4-1.8,1.1-2.3c0.7-0.5,1.8-0.8,3.2-0.8h1.2v-0.5c0-0.4-0.1-0.8-0.3-1.1c-0.2-0.3-0.6-0.4-1.1-0.4c-0.4,0-0.8,0.1-1,0.3
			c-0.2,0.2-0.4,0.5-0.4,0.8h-2.5c0-0.6,0.2-1.1,0.5-1.5s0.8-0.8,1.4-1.1c0.6-0.3,1.3-0.4,2.1-0.4c1.2,0,2.1,0.3,2.8,0.9
			c0.7,0.6,1,1.4,1,2.5v4.1c0,0.9,0.1,1.6,0.4,2v0.1H557.2z M555.1,91.5c0.4,0,0.7-0.1,1-0.3c0.3-0.2,0.6-0.4,0.7-0.7v-1.6h-0.9
			c-1.3,0-1.9,0.4-2,1.3l0,0.1c0,0.3,0.1,0.6,0.3,0.8C554.4,91.4,554.7,91.5,555.1,91.5z"/>
		<path class="st0" d="M564,93.3h-2.5V79.8h2.5V93.3z"/>
	</g>
	<g>
		<path class="st0" d="M199.6,56.8h-12.5l-2.4,7.1h-7.6L190,29.5h6.6l12.9,34.5H202L199.6,56.8z M189,51.1h8.6l-4.3-12.9L189,51.1z"
			/>
		<path class="st0" d="M222.3,51.8v12.1h-7.1V29.5h13.4c2.6,0,4.9,0.5,6.8,1.4c2,0.9,3.5,2.3,4.5,4c1.1,1.7,1.6,3.7,1.6,6
			c0,3.4-1.2,6-3.5,8c-2.3,1.9-5.5,2.9-9.6,2.9H222.3z M222.3,46h6.3c1.9,0,3.3-0.4,4.3-1.3c1-0.9,1.5-2.1,1.5-3.8
			c0-1.7-0.5-3.1-1.5-4.1c-1-1-2.4-1.6-4.1-1.6h-6.5V46z"/>
		<path class="st0" d="M275.9,52.5c-0.3,3.7-1.6,6.6-4.1,8.8c-2.5,2.1-5.7,3.2-9.8,3.2c-4.4,0-7.9-1.5-10.4-4.5
			c-2.5-3-3.8-7.1-3.8-12.2v-2.1c0-3.3,0.6-6.2,1.8-8.8c1.2-2.5,2.8-4.5,5-5.8c2.2-1.3,4.7-2,7.6-2c4,0,7.2,1.1,9.6,3.2
			c2.4,2.1,3.8,5.1,4.2,9h-7.1c-0.2-2.2-0.8-3.8-1.9-4.8c-1.1-1-2.7-1.5-4.9-1.5c-2.4,0-4.1,0.8-5.3,2.5c-1.2,1.7-1.8,4.3-1.8,7.9
			v2.6c0,3.7,0.6,6.4,1.7,8.2c1.1,1.7,2.9,2.6,5.3,2.6c2.2,0,3.8-0.5,4.9-1.5c1.1-1,1.7-2.6,1.9-4.7H275.9z"/>
		<path class="st0" d="M311,63.9h-7.1l-13.8-22.7v22.7H283V29.5h7.1l13.8,22.7V29.5h7.1V63.9z"/>
	</g>
	<g>
		<defs>
			<rect id="SVGID_1_" x="6" y="1" width="159" height="94.6"/>
		</defs>
		<clipPath id="SVGID_2_">
			<use xlink:href="#SVGID_1_"  style="overflow:visible;"/>
		</clipPath>
		<g class="st1">
			<g>
				<path class="st2" d="M88.5,41.3v104.6c27.1-2,48.6-24.7,48.6-52.3S115.6,43.3,88.5,41.3z"/>
				<path class="st3" d="M32.3,93.6c0,27.6,21.5,50.3,48.6,52.3V41.3C53.7,43.3,32.3,66,32.3,93.6z"/>
			</g>
			<g>
				<defs>
					<circle id="SVGID_3_" cx="84" cy="96" r="58.7"/>
				</defs>
				<clipPath id="SVGID_4_">
					<use xlink:href="#SVGID_3_"  style="overflow:visible;"/>
				</clipPath>
				<g class="st4">
					<polygon class="st5" points="104.6,63.7 105.1,63.7 105.8,88.6 103.8,88.6 					"/>
					<path class="st0" d="M98.7,79.6h50.1c0,0-5.1,4.7-6.3,5.9c-1.2,1.3-4.7,3.1-7.3,3.1s-22,0-22,0s-5.1-0.5-8.9-4
						C100.4,81,99.2,79.7,98.7,79.6z"/>
					<polygon class="st6" points="90.4,38.7 90.4,88.6 93.1,88.6 93.1,43.3 					"/>
					<rect x="84.1" y="38.7" class="st7" width="6.3" height="49.9"/>
					<polygon class="st6" points="79.1,38.7 79.1,88.6 82.6,88.6 82.6,43.3 					"/>
					<rect x="72.9" y="38.7" class="st7" width="6.3" height="49.9"/>
					<rect x="80.9" y="66.7" class="st8" width="3.3" height="5.2"/>
					<path class="st0" d="M35.2,88.6c0,0,6.7-6.9,15.8-6.9s14.6,6.9,14.6,6.9H35.2z"/>
					<rect x="15.5" y="88.6" class="st9" width="148.1" height="7.4"/>
					<polygon class="st0" points="59.6,96 71.4,88.6 67,88.6 53.7,96 					"/>
					<rect x="15.5" y="96" class="st0" width="148.1" height="19.2"/>
					<path class="st5" d="M105.1,63.9c0,0,1.2-0.8,1.9-0.4c0.7,0.5,1.6,0.8,2.2,0.3c0.6-0.5,0.9-0.4,0.9-0.4v2.9
						c0,0-0.6-0.1-0.9,0.1c-0.3,0.2-1,0-1.7-0.4s-2.3,0.5-2.3,0.5L105.1,63.9z"/>
					<path class="st10" d="M106.1,64.8c0,0,1.2-0.8,1.7-0.6c0,0,0.8,0.5,1.3,0.4c0,0-0.2,0.8-0.7,0.9s-0.8,0.3-0.9,0.3
						C107.3,65.7,106.9,65,106.1,64.8z"/>
					<circle class="st11" cx="107.7" cy="64.9" r="0.4"/>
				</g>
			</g>
			<path class="st0" d="M84.7,17.6c-42,0-76,34-76,76c0,42,34,76,76,76s76-34,76-76C160.7,51.6,126.6,17.6,84.7,17.6z M84.7,149.9
				c-31.1,0-56.3-25.2-56.3-56.3c0-31.1,25.2-56.3,56.3-56.3S141,62.5,141,93.6C141,124.7,115.8,149.9,84.7,149.9z"/>
			<path class="st9" d="M84.7,22c-39.5,0-71.6,32.1-71.6,71.6c0,39.5,32.1,71.6,71.6,71.6c39.5,0,71.6-32.1,71.6-71.6
				C156.3,54.1,124.2,22,84.7,22z M84.7,35.7c32,0,57.9,25.9,57.9,57.9c0,5.7-0.8,11.2-2.4,16.4h-111c-1.5-5.2-2.4-10.7-2.4-16.4
				C26.8,61.6,52.7,35.7,84.7,35.7z"/>
			<path class="st9" d="M84.7,17.3c-42.1,0-76.3,34.2-76.3,76.3c0,42.1,34.2,76.3,76.3,76.3S161,135.7,161,93.6
				C161,51.4,126.8,17.3,84.7,17.3z M84.7,167.9c-41,0-74.3-33.3-74.3-74.3s33.3-74.3,74.3-74.3S159,52.6,159,93.6
				S125.7,167.9,84.7,167.9z"/>
			<g>
				<g>
					<path class="st0" d="M75.4,160.2c0.4-2.4,0.6-3.5,0.9-5.9c0.8,0.1,1.2,0.2,1.9,0.3c0.6,0.1,1.1,0.3,1.4,0.6
						c0.3,0.3,0.4,0.7,0.4,1.2c0,0.3-0.1,0.5-0.3,0.7c-0.2,0.2-0.4,0.3-0.7,0.4c0.3,0.1,0.6,0.3,0.8,0.6c0.2,0.3,0.3,0.6,0.2,0.9
						c0,0.5-0.3,0.9-0.7,1.2c-0.4,0.3-1,0.4-1.7,0.3C76.8,160.4,76.3,160.4,75.4,160.2z M76.8,157c0.5,0.1,0.7,0.1,1.2,0.2
						c0.4,0,0.7,0,0.9-0.2c0.2-0.1,0.4-0.4,0.4-0.7c0-0.3,0-0.6-0.2-0.7c-0.2-0.2-0.5-0.3-0.9-0.3c-0.5-0.1-0.7-0.1-1.2-0.2
						C76.9,155.8,76.9,156.2,76.8,157z M76.7,157.6c-0.1,0.8-0.2,1.3-0.3,2.1c0.6,0.1,0.9,0.1,1.4,0.2c0.4,0,0.7,0,1-0.2
						c0.3-0.2,0.4-0.4,0.4-0.7c0.1-0.7-0.3-1.1-1.1-1.2C77.5,157.7,77.2,157.7,76.7,157.6z"/>
					<path class="st0" d="M83,157.2c-0.1,0-0.2,0-0.4,0c-0.5,0-0.9,0.2-1.1,0.6c-0.1,1.3-0.1,1.9-0.2,3.1c-0.3,0-0.5,0-0.8-0.1
						c0.1-1.8,0.2-2.6,0.3-4.4c0.3,0,0.5,0,0.8,0c0,0.2,0,0.3,0,0.5c0.3-0.4,0.7-0.6,1.1-0.5c0.2,0,0.3,0,0.3,0.1
						C83,156.8,83,156.9,83,157.2z"/>
					<path class="st0" d="M85.9,160.9c-0.1-0.1-0.1-0.2-0.1-0.5c-0.4,0.4-0.9,0.6-1.4,0.6c-0.5,0-0.9-0.1-1.2-0.4
						c-0.3-0.3-0.4-0.6-0.4-1c0-0.5,0.2-0.8,0.6-1.1c0.4-0.2,0.9-0.4,1.6-0.4c0.3,0,0.5,0,0.8,0c0-0.1,0-0.2,0-0.3
						c0-0.3-0.1-0.5-0.3-0.6c-0.2-0.2-0.4-0.2-0.7-0.2c-0.3,0-0.5,0.1-0.7,0.2c-0.2,0.1-0.3,0.3-0.3,0.5c-0.3,0-0.5,0-0.8,0
						c0-0.2,0.1-0.4,0.3-0.6c0.2-0.2,0.4-0.4,0.7-0.5c0.3-0.1,0.6-0.2,0.9-0.2c0.5,0,0.9,0.1,1.3,0.4c0.3,0.2,0.5,0.6,0.5,1
						c0,0.8,0,1.2,0.1,2c0,0.4,0.1,0.7,0.2,1c0,0,0,0,0,0.1C86.4,160.9,86.2,160.9,85.9,160.9z M84.4,160.4c0.3,0,0.5-0.1,0.7-0.2
						c0.2-0.1,0.4-0.3,0.5-0.5c0-0.4,0-0.5,0-0.9c-0.3,0-0.4,0-0.6,0c-1,0-1.5,0.3-1.5,0.8c0,0.2,0.1,0.4,0.3,0.6
						C83.9,160.3,84.2,160.4,84.4,160.4z"/>
					<path class="st0" d="M90,159.5c0-0.2-0.1-0.4-0.3-0.5c-0.2-0.1-0.5-0.2-0.9-0.2c-0.4-0.1-0.8-0.1-1-0.2
						c-0.2-0.1-0.4-0.2-0.6-0.4c-0.1-0.2-0.2-0.3-0.2-0.6c0-0.4,0.1-0.7,0.4-0.9c0.3-0.3,0.7-0.4,1.2-0.5c0.5,0,0.9,0.1,1.3,0.3
						c0.3,0.2,0.5,0.5,0.6,0.9c-0.3,0-0.5,0-0.8,0.1c0-0.2-0.1-0.4-0.3-0.5c-0.2-0.1-0.4-0.2-0.7-0.2c-0.3,0-0.5,0.1-0.7,0.2
						c-0.2,0.1-0.2,0.3-0.2,0.5c0,0.2,0.1,0.3,0.3,0.4c0.2,0.1,0.4,0.2,0.9,0.2c0.4,0.1,0.7,0.1,1,0.2c0.3,0.1,0.5,0.2,0.6,0.4
						s0.2,0.3,0.2,0.6c0,0.4-0.1,0.7-0.4,1c-0.3,0.3-0.8,0.4-1.3,0.5c-0.4,0-0.8,0-1.1-0.1c-0.3-0.1-0.6-0.3-0.7-0.5
						c-0.2-0.2-0.3-0.5-0.3-0.7c0.3,0,0.5,0,0.8,0c0,0.3,0.2,0.4,0.4,0.6c0.2,0.1,0.5,0.2,0.8,0.2c0.3,0,0.6-0.1,0.7-0.2
						C90,159.9,90,159.7,90,159.5z"/>
					<path class="st0" d="M90.8,155c0-0.1,0-0.2,0.1-0.3c0.1-0.1,0.2-0.1,0.3-0.2c0.1,0,0.3,0,0.4,0.1c0.1,0.1,0.1,0.2,0.2,0.3
						c0,0.1,0,0.2-0.1,0.3c-0.1,0.1-0.2,0.1-0.3,0.2c-0.1,0-0.3,0-0.4-0.1C90.9,155.2,90.8,155.1,90.8,155z M92.3,160.4
						c-0.3,0-0.5,0.1-0.8,0.1c-0.2-1.8-0.3-2.6-0.5-4.4c0.3,0,0.5-0.1,0.8-0.1C92,157.8,92.1,158.7,92.3,160.4z"/>
					<path class="st0" d="M94,160.2c-0.3,0.1-0.5,0.1-0.8,0.1c-0.4-2.5-0.5-3.7-0.9-6.2c0.3,0,0.5-0.1,0.8-0.1
						C93.4,156.5,93.6,157.7,94,160.2z"/>
				</g>
			</g>
			<g>
				<polygon class="st12" points="65.4,155.4 63.8,155.1 65,154.1 64.8,152.5 66.1,153.3 67.5,152.7 67.2,154.2 68.3,155.3 
					66.7,155.5 66,156.9 				"/>
				<g>
					<polygon id="_202182424_16_" class="st0" points="65,152.9 66.1,153.5 67.3,153 67,154.3 67.9,155.2 66.6,155.3 66,156.5 
						65.5,155.3 64.2,155 65.2,154.2 					"/>
					<polygon id="_202184584_16_" class="st13" points="65.2,154.2 66.1,154.5 65,152.9 					"/>
					<polygon id="_89588640_16_" class="st13" points="66.1,154.5 66.1,153.5 67.3,153 					"/>
					<polygon id="_249109328_16_" class="st13" points="66.1,154.5 67,154.3 67.9,155.2 					"/>
					<polygon id="_249110792_16_" class="st13" points="66.1,154.5 66.6,155.3 66,156.5 					"/>
					<polygon id="_249111272_16_" class="st13" points="66.1,154.5 64.2,155 65.5,155.3 					"/>
				</g>
			</g>
			<g>
				<polygon class="st12" points="56.8,152.2 55.3,151.9 56.4,150.8 56.2,149.3 57.6,150.1 59,149.4 58.7,150.9 59.8,152.1 
					58.2,152.2 57.5,153.6 				"/>
				<g>
					<polygon id="_202182424_15_" class="st0" points="56.5,149.6 57.6,150.3 58.8,149.7 58.5,151 59.4,152 58.1,152.1 57.5,153.2 
						56.9,152 55.6,151.8 56.7,150.9 					"/>
					<polygon id="_202184584_15_" class="st13" points="56.7,150.9 57.5,151.3 56.5,149.6 					"/>
					<polygon id="_89588640_15_" class="st13" points="57.5,151.3 57.6,150.3 58.8,149.7 					"/>
					<polygon id="_249109328_15_" class="st13" points="57.5,151.3 58.5,151 59.4,152 					"/>
					<polygon id="_249110792_15_" class="st13" points="57.5,151.3 58.1,152.1 57.5,153.2 					"/>
					<polygon id="_249111272_15_" class="st13" points="57.5,151.3 55.6,151.8 56.9,152 					"/>
				</g>
			</g>
			<g>
				<polygon class="st12" points="105.5,155.2 107.1,154.9 105.9,153.9 106.1,152.3 104.7,153.1 103.3,152.4 103.6,154 102.6,155.1 
					104.1,155.3 104.9,156.6 				"/>
				<g>
					<polygon id="_202182424_14_" class="st0" points="105.9,152.6 104.7,153.3 103.5,152.7 103.9,154 102.9,155 104.3,155.1 
						104.9,156.3 105.4,155 106.7,154.8 105.7,153.9 					"/>
					<polygon id="_202184584_14_" class="st13" points="105.7,153.9 104.8,154.3 105.9,152.6 					"/>
					<polygon id="_89588640_14_" class="st13" points="104.8,154.3 104.7,153.3 103.5,152.7 					"/>
					<polygon id="_249109328_14_" class="st13" points="104.8,154.3 103.9,154 102.9,155 					"/>
					<polygon id="_249110792_14_" class="st13" points="104.8,154.3 104.3,155.1 104.9,156.3 					"/>
					<polygon id="_249111272_14_" class="st13" points="104.8,154.3 106.7,154.8 105.4,155 					"/>
				</g>
			</g>
			<g>
				<polygon class="st12" points="114.1,152 115.6,151.7 114.4,150.6 114.6,149.1 113.3,149.9 111.9,149.2 112.2,150.7 111.1,151.8 
					112.7,152 113.4,153.4 				"/>
				<g>
					<polygon id="_202182424_13_" class="st0" points="114.4,149.4 113.3,150.1 112.1,149.5 112.4,150.8 111.5,151.7 112.8,151.8 
						113.4,153 113.9,151.8 115.2,151.5 114.2,150.7 					"/>
					<polygon id="_202184584_13_" class="st13" points="114.2,150.7 113.3,151 114.4,149.4 					"/>
					<polygon id="_89588640_13_" class="st13" points="113.3,151 113.3,150.1 112.1,149.5 					"/>
					<polygon id="_249109328_13_" class="st13" points="113.3,151 112.4,150.8 111.5,151.7 					"/>
					<polygon id="_249110792_13_" class="st13" points="113.3,151 112.8,151.8 113.4,153 					"/>
					<polygon id="_249111272_13_" class="st13" points="113.3,151 115.2,151.5 113.9,151.8 					"/>
				</g>
			</g>
			<g>
				<g>
					<polygon class="st3" points="26.8,93.6 26.8,93.6 26.8,93.6 					"/>
					<path class="st3" d="M84.7,37.3c31.1,0,56.3,25.2,56.3,56.3c0,31.1-25.2,56.3-56.3,56.3v1.6c32,0,57.9-25.9,57.9-57.9
						c0-32-25.9-57.9-57.9-57.9V37.3z"/>
				</g>
				<path class="st2" d="M84.7,151.5v-1.6c-31.1,0-56.3-25.2-56.3-56.3c0-31.1,25.2-56.3,56.3-56.3l1.4-0.7l-1.4-0.9
					c-32,0-57.9,25.9-57.9,57.9C26.8,125.5,52.7,151.5,84.7,151.5z"/>
				<polyline class="st3" points="84.7,149.9 83.3,150.5 84.7,151.5 				"/>
			</g>
			<g>
				<path class="st0" d="M62.9,130.8H57l-1.1,3.4h-3.6l6.1-16.4h3.1l6.1,16.4H64L62.9,130.8z M57.9,128H62l-2.1-6.1L57.9,128z"/>
				<path class="st0" d="M73.7,128.4v5.8h-3.4v-16.4h6.4c1.2,0,2.3,0.2,3.2,0.7c0.9,0.5,1.7,1.1,2.2,1.9c0.5,0.8,0.8,1.8,0.8,2.8
					c0,1.6-0.5,2.9-1.6,3.8c-1.1,0.9-2.6,1.4-4.6,1.4H73.7z M73.7,125.6h3c0.9,0,1.6-0.2,2-0.6c0.5-0.4,0.7-1,0.7-1.8
					c0-0.8-0.2-1.5-0.7-1.9c-0.5-0.5-1.1-0.8-2-0.8h-3.1V125.6z"/>
				<path class="st0" d="M99.2,128.7c-0.1,1.8-0.8,3.2-2,4.2c-1.2,1-2.7,1.5-4.6,1.5c-2.1,0-3.8-0.7-5-2.1c-1.2-1.4-1.8-3.4-1.8-5.8
					v-1c0-1.6,0.3-3,0.8-4.2c0.6-1.2,1.3-2.1,2.4-2.8c1-0.6,2.2-1,3.6-1c1.9,0,3.4,0.5,4.6,1.5c1.2,1,1.8,2.4,2,4.3h-3.4
					c-0.1-1.1-0.4-1.8-0.9-2.3c-0.5-0.5-1.3-0.7-2.3-0.7c-1.1,0-2,0.4-2.5,1.2c-0.6,0.8-0.8,2.1-0.9,3.8v1.2c0,1.8,0.3,3.1,0.8,3.9
					c0.5,0.8,1.4,1.2,2.5,1.2c1,0,1.8-0.2,2.3-0.7c0.5-0.5,0.8-1.2,0.9-2.2H99.2z"/>
				<path class="st0" d="M115.9,134.1h-3.4l-6.6-10.8v10.8h-3.4v-16.4h3.4l6.6,10.8v-10.8h3.4V134.1z"/>
			</g>
			<g>
				<path class="st9" d="M78.6,105.7h-0.7V101l-1.4,0.5v-0.6l2-0.7h0.1V105.7z"/>
				<path class="st9" d="M83.7,103.3c-0.1,0.2-0.3,0.3-0.5,0.4c-0.2,0.1-0.4,0.2-0.7,0.2c-0.3,0-0.6-0.1-0.8-0.2
					c-0.2-0.2-0.4-0.4-0.5-0.7c-0.1-0.3-0.2-0.6-0.2-0.9c0-0.4,0.1-0.7,0.2-1c0.1-0.3,0.3-0.5,0.6-0.7c0.3-0.2,0.6-0.2,0.9-0.2
					c0.5,0,1,0.2,1.3,0.6c0.3,0.4,0.5,1,0.5,1.7v0.2c0,1.1-0.2,1.8-0.6,2.3c-0.4,0.5-1.1,0.7-1.9,0.8h-0.1v-0.6h0.1
					c0.6,0,1-0.2,1.3-0.4S83.6,103.9,83.7,103.3z M82.6,103.3c0.2,0,0.4-0.1,0.6-0.2c0.2-0.1,0.3-0.3,0.4-0.5v-0.3
					c0-0.5-0.1-0.8-0.3-1.1c-0.2-0.3-0.4-0.4-0.8-0.4c-0.3,0-0.6,0.1-0.7,0.4c-0.2,0.2-0.3,0.5-0.3,0.9c0,0.4,0.1,0.7,0.3,0.9
					C82,103.1,82.3,103.3,82.6,103.3z"/>
				<path class="st9" d="M89,101.6c0,0.3-0.1,0.5-0.2,0.7c-0.1,0.2-0.3,0.4-0.6,0.5c0.3,0.1,0.5,0.3,0.7,0.5
					c0.2,0.2,0.2,0.5,0.2,0.8c0,0.5-0.2,0.8-0.5,1.1c-0.3,0.3-0.7,0.4-1.3,0.4c-0.5,0-0.9-0.1-1.3-0.4c-0.3-0.3-0.5-0.7-0.5-1.1
					c0-0.3,0.1-0.6,0.2-0.8s0.4-0.4,0.7-0.5c-0.2-0.1-0.4-0.3-0.6-0.5c-0.1-0.2-0.2-0.5-0.2-0.7c0-0.5,0.1-0.8,0.4-1.1
					c0.3-0.3,0.7-0.4,1.2-0.4c0.5,0,0.9,0.1,1.2,0.4C88.9,100.8,89,101.2,89,101.6z M88.4,104.2c0-0.3-0.1-0.6-0.3-0.7
					c-0.2-0.2-0.4-0.3-0.8-0.3s-0.6,0.1-0.8,0.3c-0.2,0.2-0.3,0.4-0.3,0.8c0,0.3,0.1,0.6,0.3,0.7c0.2,0.2,0.4,0.3,0.8,0.3
					c0.3,0,0.6-0.1,0.8-0.3C88.4,104.7,88.4,104.5,88.4,104.2z M87.4,100.7c-0.3,0-0.5,0.1-0.7,0.3c-0.2,0.2-0.3,0.4-0.3,0.7
					c0,0.3,0.1,0.5,0.2,0.7c0.2,0.2,0.4,0.3,0.7,0.3c0.3,0,0.5-0.1,0.7-0.3c0.2-0.2,0.2-0.4,0.2-0.7c0-0.3-0.1-0.5-0.3-0.7
					C87.9,100.8,87.7,100.7,87.4,100.7z"/>
				<path class="st9" d="M90.7,102.9l0.3-2.7h2.8v0.6h-2.2l-0.2,1.5c0.3-0.2,0.6-0.2,0.9-0.2c0.5,0,0.9,0.2,1.2,0.5
					c0.3,0.3,0.4,0.8,0.4,1.3c0,0.6-0.2,1-0.5,1.3c-0.3,0.3-0.7,0.5-1.3,0.5c-0.5,0-0.9-0.1-1.2-0.4c-0.3-0.3-0.5-0.6-0.5-1.1h0.7
					c0,0.3,0.2,0.5,0.3,0.7c0.2,0.2,0.4,0.2,0.7,0.2c0.3,0,0.6-0.1,0.8-0.3c0.2-0.2,0.3-0.5,0.3-0.9c0-0.4-0.1-0.7-0.3-0.9
					c-0.2-0.2-0.5-0.3-0.8-0.3c-0.3,0-0.5,0.1-0.7,0.2l-0.2,0.2L90.7,102.9z"/>
			</g>
			<circle class="st9" cx="71" cy="102.8" r="1.7"/>
			<circle class="st9" cx="99.7" cy="102.8" r="1.7"/>
			<g>
				<path class="st0" d="M19.3,90.9l-0.1,2.7l1.6,0.6l0,1.2l-6.8-2.8l0-1.1l6.9-2.3l0,1.2L19.3,90.9z M18.2,93.2l0.1-2l-2.9,0.9
					L18.2,93.2z"/>
				<path class="st0" d="M20,85.6c-0.2,0-0.4,0-0.5,0.2c-0.1,0.2-0.3,0.4-0.4,0.8c-0.1,0.4-0.3,0.7-0.4,0.9
					c-0.3,0.5-0.8,0.8-1.3,0.7c-0.4-0.1-0.8-0.3-1-0.7c-0.2-0.4-0.3-0.9-0.3-1.5c0.1-0.6,0.3-1.1,0.6-1.4c0.3-0.3,0.8-0.5,1.2-0.4
					l-0.1,1.1c-0.2,0-0.4,0-0.6,0.2c-0.2,0.1-0.3,0.3-0.3,0.6c0,0.2,0,0.5,0.1,0.6c0.1,0.2,0.2,0.3,0.4,0.3c0.2,0,0.3,0,0.4-0.2
					c0.1-0.1,0.2-0.4,0.4-0.9c0.2-0.4,0.3-0.8,0.5-1c0.2-0.2,0.4-0.4,0.6-0.5c0.2-0.1,0.4-0.1,0.7-0.1c0.5,0.1,0.8,0.3,1,0.7
					c0.2,0.4,0.3,0.9,0.2,1.5c-0.1,0.4-0.2,0.8-0.4,1.1c-0.2,0.3-0.4,0.5-0.7,0.7c-0.3,0.1-0.6,0.2-0.9,0.2l0.1-1.1
					c0.3,0,0.5-0.1,0.7-0.2c0.2-0.2,0.3-0.4,0.3-0.7c0-0.3,0-0.5-0.1-0.7C20.3,85.8,20.2,85.7,20,85.6z"/>
				<path class="st0" d="M20.9,80.8c-0.2,0-0.4,0-0.5,0.2c-0.1,0.1-0.3,0.4-0.4,0.8c-0.2,0.4-0.3,0.7-0.5,0.9
					c-0.4,0.5-0.8,0.7-1.3,0.6c-0.4-0.1-0.8-0.3-1-0.8c-0.2-0.4-0.3-0.9-0.2-1.5c0.1-0.6,0.4-1,0.7-1.4c0.4-0.3,0.8-0.4,1.3-0.3
					l-0.2,1.1c-0.2,0-0.4,0-0.6,0.1c-0.2,0.1-0.3,0.3-0.3,0.6c-0.1,0.2,0,0.5,0,0.6c0.1,0.2,0.2,0.3,0.4,0.3c0.2,0,0.3,0,0.4-0.1
					c0.1-0.1,0.3-0.4,0.5-0.8c0.2-0.4,0.4-0.7,0.6-1c0.2-0.2,0.4-0.4,0.6-0.5c0.2-0.1,0.5-0.1,0.7,0c0.4,0.1,0.8,0.4,1,0.8
					c0.2,0.4,0.2,0.9,0.1,1.5c-0.1,0.4-0.2,0.8-0.4,1c-0.2,0.3-0.5,0.5-0.8,0.6c-0.3,0.1-0.6,0.2-0.9,0.1l0.2-1.1
					c0.3,0,0.5,0,0.7-0.2c0.2-0.2,0.3-0.4,0.4-0.7c0.1-0.3,0-0.5,0-0.7C21.2,80.9,21.1,80.8,20.9,80.8z"/>
				<path class="st0" d="M20.1,78.6c-0.5-0.1-0.9-0.4-1.2-0.7c-0.3-0.3-0.5-0.7-0.7-1.1c-0.1-0.4-0.1-0.8,0-1.3
					c0.2-0.7,0.6-1.1,1.1-1.4c0.5-0.3,1.2-0.3,1.9-0.2l0.3,0.1c0.5,0.1,0.9,0.4,1.2,0.7c0.3,0.3,0.5,0.6,0.7,1.1
					c0.1,0.4,0.1,0.8,0,1.3c-0.2,0.7-0.6,1.2-1.2,1.5C21.6,78.8,20.9,78.8,20.1,78.6L20.1,78.6z M20.5,77.5c0.5,0.1,0.9,0.2,1.3,0
					c0.3-0.1,0.6-0.4,0.7-0.7c0.1-0.4,0-0.7-0.2-1c-0.2-0.3-0.6-0.5-1.2-0.7c-0.5-0.1-0.9-0.1-1.3,0c-0.4,0.1-0.6,0.4-0.7,0.7
					c-0.1,0.4,0,0.7,0.2,1C19.6,77.1,20,77.4,20.5,77.5z"/>
				<path class="st0" d="M24.2,71.7c0.1-0.3,0.1-0.5,0-0.8c-0.1-0.2-0.2-0.4-0.5-0.5l0.4-1c0.3,0.1,0.5,0.3,0.7,0.6
					c0.2,0.3,0.3,0.6,0.3,0.9c0,0.4,0,0.7-0.1,1c-0.3,0.7-0.7,1.1-1.2,1.3c-0.6,0.2-1.2,0.2-2-0.1l-0.1,0c-0.7-0.3-1.2-0.7-1.5-1.2
					c-0.3-0.6-0.3-1.2-0.1-1.8c0.2-0.6,0.6-1,1-1.2c0.5-0.2,1-0.3,1.5-0.1l-0.4,1c-0.3-0.1-0.5-0.1-0.8,0c-0.2,0.1-0.4,0.3-0.5,0.6
					c-0.1,0.3-0.1,0.7,0.1,0.9c0.2,0.3,0.5,0.5,1,0.7l0.2,0.1c0.5,0.2,0.9,0.2,1.3,0.2C23.8,72.3,24,72.1,24.2,71.7z"/>
				<path class="st0" d="M20.2,66.8c-0.2-0.1-0.3-0.2-0.3-0.3c-0.1-0.1,0-0.3,0-0.5c0.1-0.2,0.2-0.3,0.4-0.4c0.2-0.1,0.3,0,0.5,0
					c0.2,0.1,0.3,0.2,0.3,0.3c0.1,0.2,0,0.3,0,0.5c-0.1,0.2-0.2,0.3-0.4,0.4C20.5,66.8,20.3,66.8,20.2,66.8z M26.5,68.3l-0.5,1
					l-4.6-2.1l0.5-1L26.5,68.3z"/>
				<path class="st0" d="M28.4,64.5c-0.1,0-0.3,0-0.5-0.1c0.2,0.5,0.1,1-0.1,1.4c-0.2,0.5-0.6,0.8-1,0.9c-0.4,0.2-0.8,0.1-1.2-0.1
					c-0.5-0.2-0.8-0.6-0.8-1.1c-0.1-0.5,0.1-1.1,0.4-1.7l0.3-0.6l-0.3-0.2C25,63,24.8,62.9,24.6,63c-0.2,0.1-0.4,0.2-0.5,0.5
					c-0.1,0.2-0.2,0.4-0.1,0.7c0,0.2,0.1,0.4,0.3,0.4l-0.5,1c-0.2-0.1-0.4-0.3-0.6-0.6C23,64.7,23,64.4,23,64.1c0-0.3,0.1-0.7,0.3-1
					c0.3-0.5,0.6-0.9,1.1-1.1c0.4-0.2,0.9-0.1,1.4,0.1l2,1.1c0.4,0.2,0.8,0.3,1.1,0.3l0.1,0L28.4,64.5z M27.1,65.3
					c0.1-0.2,0.2-0.4,0.1-0.6c0-0.2-0.1-0.4-0.2-0.6l-0.9-0.4l-0.3,0.5c-0.2,0.4-0.3,0.7-0.2,1c0,0.3,0.2,0.4,0.4,0.6
					c0.2,0.1,0.4,0.1,0.6,0C26.8,65.6,26.9,65.5,27.1,65.3z"/>
				<path class="st0" d="M29.8,60.5c0.1-0.2,0.2-0.5,0.2-0.7c0-0.2-0.2-0.4-0.4-0.6l0.6-0.9c0.3,0.2,0.5,0.4,0.6,0.7
					c0.1,0.3,0.2,0.6,0.2,1c0,0.4-0.1,0.7-0.3,1c-0.4,0.6-0.9,1-1.5,1.1c-0.6,0.1-1.3-0.1-2-0.5L27,61.5c-0.7-0.4-1.1-0.9-1.3-1.5
					c-0.2-0.6-0.1-1.2,0.3-1.8c0.3-0.5,0.7-0.8,1.2-1c0.5-0.1,1-0.1,1.5,0.2l-0.6,0.9c-0.3-0.1-0.5-0.2-0.8-0.1
					c-0.3,0.1-0.5,0.2-0.6,0.5c-0.2,0.3-0.2,0.6-0.1,0.9c0.1,0.3,0.4,0.6,0.9,0.9l0.2,0.1c0.5,0.3,0.9,0.4,1.2,0.4
					C29.3,61,29.6,60.8,29.8,60.5z M30.6,60.7l0.2,0.2c0.3-0.4,0.7-0.4,1.1-0.2c0.3,0.2,0.4,0.4,0.4,0.8c0,0.3-0.1,0.7-0.4,1.1
					l-0.6-0.3c0.1-0.2,0.2-0.3,0.2-0.5c0-0.1-0.1-0.2-0.2-0.3c-0.1-0.1-0.2-0.1-0.3,0c-0.1,0.1-0.2,0.2-0.4,0.4l-0.5-0.5L30.6,60.7z
					"/>
				<path class="st0" d="M28.5,51.3c0.3,0.2,0.4,0.5,0.5,0.8c0.1,0.3,0,0.6-0.2,0.8c-0.1,0.1-0.1,0.2-0.2,0.2
					c-0.1,0.1-0.2,0.1-0.4,0.2c-0.2,0.1-0.3,0.1-0.3,0.2c-0.1,0-0.1,0.1-0.2,0.2c-0.1,0.1-0.1,0.2-0.1,0.3c0,0.1,0.1,0.2,0.2,0.3
					l-0.4,0.5c-0.3-0.2-0.5-0.5-0.5-0.8c-0.1-0.3,0-0.6,0.2-0.8c0.1-0.1,0.3-0.3,0.6-0.4c0.3-0.1,0.4-0.2,0.5-0.4
					c0.1-0.1,0.1-0.2,0.1-0.3c0-0.1-0.1-0.2-0.2-0.3L28.5,51.3z M33.8,56.1c-0.1,0-0.3-0.1-0.5-0.2c0.1,0.5,0,1-0.3,1.4
					c-0.3,0.4-0.7,0.7-1.1,0.7c-0.4,0.1-0.8,0-1.2-0.3c-0.4-0.3-0.7-0.7-0.6-1.2c0-0.5,0.2-1,0.7-1.7l0.4-0.6l-0.3-0.2
					c-0.2-0.2-0.4-0.2-0.6-0.2c-0.2,0-0.4,0.2-0.6,0.4c-0.2,0.2-0.2,0.4-0.2,0.6c0,0.2,0.1,0.4,0.3,0.5L29,56.5
					c-0.2-0.2-0.4-0.4-0.5-0.7c-0.1-0.3-0.1-0.6,0-0.9c0.1-0.3,0.2-0.7,0.5-1c0.4-0.5,0.8-0.8,1.2-0.9c0.5-0.1,0.9,0,1.3,0.3
					l1.9,1.4c0.4,0.3,0.7,0.4,1,0.5l0.1,0L33.8,56.1z M32.4,56.7c0.1-0.2,0.2-0.4,0.2-0.6c0-0.2,0-0.4-0.1-0.6l-0.8-0.6l-0.4,0.5
					C31.1,55.7,31,56,31,56.3c0,0.3,0.1,0.5,0.3,0.6c0.2,0.1,0.4,0.2,0.6,0.1C32.1,57,32.2,56.9,32.4,56.7z"/>
				<path class="st0" d="M32.9,53c-0.4-0.3-0.6-0.7-0.8-1.1c-0.2-0.4-0.2-0.8-0.1-1.2c0.1-0.4,0.3-0.8,0.6-1.1
					c0.5-0.5,1-0.8,1.6-0.8c0.6,0,1.2,0.2,1.8,0.6l0.2,0.2c0.4,0.3,0.7,0.7,0.8,1.1c0.2,0.4,0.2,0.8,0.1,1.2
					c-0.1,0.4-0.3,0.8-0.6,1.2c-0.5,0.5-1,0.8-1.7,0.8C34.2,53.8,33.6,53.6,32.9,53L32.9,53z M33.7,52.2c0.4,0.3,0.8,0.5,1.1,0.6
					c0.4,0,0.7-0.1,0.9-0.4c0.3-0.3,0.3-0.6,0.3-1c-0.1-0.4-0.3-0.7-0.8-1.1c-0.4-0.3-0.8-0.5-1.1-0.6c-0.4,0-0.7,0.1-0.9,0.4
					c-0.2,0.3-0.3,0.6-0.2,1C33,51.4,33.3,51.8,33.7,52.2z"/>
				<path class="st0" d="M38.3,47.1c-0.5-0.6-0.8-1.2-0.9-1.8c0-0.6,0.2-1.1,0.6-1.5c0.4-0.4,0.9-0.5,1.3-0.5l-1.7-1.9l0.8-0.8
					l4.8,5.4l-0.8,0.7l-0.4-0.4c0,0.5-0.2,1-0.6,1.4c-0.4,0.4-1,0.5-1.6,0.4C39.5,48.1,38.9,47.7,38.3,47.1z M39.2,46.4
					c0.3,0.4,0.7,0.6,1,0.7c0.3,0.1,0.6,0,0.9-0.2c0.3-0.3,0.5-0.7,0.3-1.2l-1.5-1.6c-0.4-0.2-0.8-0.1-1.2,0.2
					c-0.3,0.2-0.4,0.5-0.3,0.9C38.6,45.6,38.8,46,39.2,46.4z"/>
				<path class="st0" d="M46.6,43.5c-0.1,0-0.2-0.1-0.4-0.3c-0.1,0.5-0.3,0.9-0.7,1.3c-0.4,0.3-0.8,0.4-1.3,0.4
					c-0.4,0-0.8-0.2-1-0.6c-0.3-0.4-0.4-0.9-0.3-1.4c0.1-0.5,0.5-0.9,1.1-1.4l0.6-0.4l-0.2-0.3c-0.2-0.2-0.3-0.3-0.6-0.4
					c-0.2,0-0.4,0-0.7,0.2c-0.2,0.2-0.3,0.3-0.4,0.5c-0.1,0.2,0,0.4,0.1,0.5l-0.9,0.7c-0.2-0.2-0.3-0.5-0.3-0.8
					c0-0.3,0.1-0.6,0.3-0.9c0.2-0.3,0.4-0.6,0.7-0.8c0.5-0.4,0.9-0.5,1.4-0.5c0.5,0,0.9,0.2,1.2,0.7l1.4,1.8
					c0.3,0.4,0.6,0.6,0.8,0.8l0,0.1L46.6,43.5z M45.1,43.6c0.2-0.1,0.3-0.3,0.4-0.5c0.1-0.2,0.1-0.4,0.1-0.6L45,41.7l-0.5,0.4
					c-0.3,0.3-0.5,0.5-0.6,0.8c-0.1,0.2,0,0.5,0.1,0.7c0.1,0.2,0.3,0.3,0.5,0.3C44.7,43.8,44.9,43.7,45.1,43.6z"/>
				<path class="st0" d="M49.9,39.6c-0.1-0.2-0.3-0.3-0.5-0.3c-0.2,0-0.5,0.1-0.9,0.2c-0.4,0.1-0.7,0.2-1,0.3
					c-0.6,0.1-1.1-0.1-1.4-0.5c-0.2-0.4-0.3-0.8-0.1-1.2c0.1-0.4,0.5-0.8,0.9-1.1c0.5-0.3,1-0.5,1.5-0.4c0.5,0,0.8,0.3,1.1,0.7
					l-1,0.6c-0.1-0.2-0.3-0.3-0.5-0.3c-0.2,0-0.4,0-0.7,0.2c-0.2,0.1-0.4,0.3-0.4,0.5c-0.1,0.2-0.1,0.4,0.1,0.5
					c0.1,0.1,0.2,0.2,0.4,0.2c0.2,0,0.5-0.1,0.9-0.2c0.4-0.2,0.8-0.3,1.1-0.3c0.3,0,0.5,0,0.7,0.1c0.2,0.1,0.4,0.3,0.5,0.5
					c0.2,0.4,0.3,0.8,0.1,1.2c-0.2,0.4-0.5,0.8-1,1.2c-0.3,0.2-0.7,0.4-1.1,0.4c-0.4,0.1-0.7,0-1-0.1c-0.3-0.1-0.5-0.3-0.7-0.6
					l0.9-0.6c0.2,0.2,0.4,0.3,0.6,0.4c0.2,0,0.5-0.1,0.7-0.2c0.3-0.2,0.4-0.3,0.5-0.5C50,39.9,50,39.7,49.9,39.6z"/>
				<path class="st0" d="M54.4,35.7l1.1,2.3l-1.1,0.5l-3-6.2l2.4-1.2c0.7-0.3,1.3-0.4,1.9-0.3s1,0.5,1.3,1.1
					c0.3,0.6,0.3,1.2,0.1,1.7c-0.2,0.5-0.7,1-1.4,1.3L54.4,35.7z M54,34.8l1.3-0.6c0.4-0.2,0.6-0.4,0.7-0.7c0.1-0.3,0.1-0.6-0.1-0.9
					c-0.2-0.3-0.4-0.5-0.7-0.6c-0.3-0.1-0.6-0.1-1,0.1l-1.3,0.6L54,34.8z"/>
				<path class="st0" d="M58.6,33.6c-0.2-0.5-0.2-0.9-0.2-1.4c0-0.4,0.2-0.8,0.4-1.2c0.3-0.3,0.6-0.6,1-0.7c0.6-0.2,1.2-0.2,1.8,0
					c0.6,0.3,1,0.7,1.3,1.4L63,32c0.2,0.5,0.2,0.9,0.2,1.4c0,0.4-0.2,0.8-0.4,1.2c-0.3,0.3-0.6,0.6-1,0.7c-0.7,0.3-1.3,0.2-1.9-0.1
					C59.3,34.9,58.9,34.4,58.6,33.6L58.6,33.6z M59.7,33.3c0.2,0.5,0.4,0.8,0.7,1c0.3,0.2,0.6,0.2,1,0.1c0.4-0.1,0.6-0.4,0.7-0.7
					c0.1-0.4,0-0.8-0.2-1.4c-0.2-0.5-0.4-0.8-0.7-1c-0.3-0.2-0.6-0.2-1-0.1c-0.3,0.1-0.6,0.4-0.7,0.7C59.4,32.3,59.5,32.7,59.7,33.3
					z"/>
				<path class="st0" d="M65.9,33.8l-1.1,0.3l-2.2-6.9l1.1-0.3L65.9,33.8z"/>
				<path class="st0" d="M66.2,26.2l1.3-0.3l-0.9,1.7l-0.9,0.2L66.2,26.2z M68.3,33.1l-1.1,0.3l-1.3-4.9l1.1-0.3L68.3,33.1z"/>
				<path class="st0" d="M71.3,31.5c0.3-0.1,0.5-0.2,0.6-0.4c0.1-0.2,0.2-0.4,0.2-0.7l1.1-0.2c0.1,0.3,0,0.6-0.1,0.9
					c-0.1,0.3-0.3,0.6-0.6,0.8c-0.3,0.2-0.6,0.4-1,0.4c-0.7,0.1-1.3,0-1.8-0.3c-0.5-0.4-0.8-0.9-1-1.7l0-0.1
					c-0.2-0.8-0.1-1.4,0.2-1.9c0.3-0.5,0.8-0.9,1.5-1c0.6-0.1,1.1-0.1,1.6,0.2c0.4,0.3,0.7,0.7,0.9,1.2l-1.1,0.2
					c-0.1-0.3-0.2-0.5-0.4-0.6c-0.2-0.1-0.5-0.2-0.8-0.1c-0.4,0.1-0.6,0.3-0.8,0.6c-0.1,0.3-0.2,0.7,0,1.3l0,0.2
					c0.1,0.5,0.3,0.9,0.5,1.1C70.6,31.5,70.9,31.6,71.3,31.5z"/>
				<path class="st0" d="M73.3,25.5c0-0.2,0-0.3,0.1-0.5c0.1-0.1,0.2-0.2,0.4-0.2c0.2,0,0.4,0,0.5,0.1c0.1,0.1,0.2,0.2,0.2,0.4
					c0,0.2,0,0.3-0.1,0.4c-0.1,0.1-0.2,0.2-0.4,0.2c-0.2,0-0.4,0-0.5-0.1C73.4,25.8,73.3,25.6,73.3,25.5z M75.5,31.6l-1.1,0.2
					l-0.8-5l1.1-0.2L75.5,31.6z"/>
				<path class="st0" d="M79.6,31.2c-0.1-0.1-0.1-0.2-0.2-0.5c-0.3,0.4-0.8,0.6-1.3,0.7c-0.5,0-0.9-0.1-1.3-0.3
					c-0.3-0.3-0.5-0.6-0.6-1c-0.1-0.5,0.1-1,0.5-1.3c0.4-0.3,0.9-0.5,1.7-0.6l0.7-0.1l0-0.3c0-0.3-0.1-0.5-0.3-0.6
					c-0.2-0.1-0.4-0.2-0.7-0.2c-0.3,0-0.5,0.1-0.6,0.3c-0.2,0.1-0.2,0.3-0.2,0.5l-1.1,0.1c0-0.3,0-0.5,0.2-0.8
					c0.2-0.3,0.4-0.5,0.7-0.6c0.3-0.2,0.7-0.3,1-0.3c0.6-0.1,1.1,0.1,1.5,0.3c0.4,0.3,0.6,0.7,0.7,1.2l0.2,2.3
					c0,0.5,0.1,0.8,0.3,1.1l0,0.1L79.6,31.2z M78.3,30.5c0.2,0,0.4-0.1,0.6-0.2c0.2-0.1,0.3-0.3,0.4-0.5l-0.1-1l-0.6,0.1
					c-0.4,0-0.7,0.1-0.9,0.3c-0.2,0.2-0.3,0.4-0.3,0.7c0,0.2,0.1,0.4,0.3,0.5C77.8,30.4,78.1,30.5,78.3,30.5z"/>
				<path class="st0" d="M84.5,29.6c0-0.2-0.1-0.4-0.3-0.5c-0.2-0.1-0.4-0.2-0.8-0.3s-0.7-0.2-1-0.3c-0.6-0.3-0.9-0.7-0.9-1.2
					c0-0.4,0.2-0.8,0.5-1.1c0.4-0.3,0.8-0.5,1.4-0.5c0.6,0,1.1,0.1,1.5,0.4c0.4,0.3,0.6,0.7,0.6,1.2l-1.1,0c0-0.2-0.1-0.4-0.3-0.5
					c-0.2-0.1-0.4-0.2-0.7-0.2c-0.2,0-0.5,0.1-0.6,0.2c-0.2,0.1-0.2,0.3-0.2,0.5c0,0.2,0.1,0.3,0.2,0.4c0.1,0.1,0.4,0.2,0.9,0.3
					s0.8,0.2,1.1,0.3c0.3,0.1,0.4,0.3,0.6,0.5c0.1,0.2,0.2,0.4,0.2,0.7c0,0.5-0.2,0.8-0.6,1.1c-0.4,0.3-0.9,0.4-1.5,0.4
					c-0.4,0-0.8-0.1-1.1-0.2c-0.3-0.1-0.6-0.3-0.8-0.6c-0.2-0.3-0.3-0.5-0.3-0.8l1.1,0c0,0.3,0.1,0.5,0.3,0.6
					c0.2,0.1,0.4,0.2,0.8,0.2c0.3,0,0.5-0.1,0.7-0.2C84.4,29.9,84.5,29.8,84.5,29.6z"/>
				<path class="st0" d="M88.9,28.5c0.1-0.8,0.3-1.4,0.7-1.8c0.4-0.4,0.9-0.6,1.5-0.6c0.5,0.1,1,0.3,1.2,0.7l0.3-2.6l1.1,0.1
					l-0.7,7.2l-1-0.1l0-0.5c-0.4,0.4-0.9,0.5-1.4,0.5c-0.6-0.1-1-0.3-1.4-0.9C88.9,30,88.8,29.3,88.9,28.5z M90,28.7
					c-0.1,0.5,0,0.9,0.2,1.2c0.2,0.3,0.4,0.5,0.8,0.5c0.5,0,0.8-0.1,1.1-0.5l0.2-2.2c-0.2-0.4-0.5-0.7-1-0.7c-0.4,0-0.7,0.1-0.9,0.4
					C90.2,27.7,90.1,28.1,90,28.7z"/>
				<path class="st0" d="M94.4,29.1c0.1-0.5,0.3-0.9,0.5-1.3c0.3-0.4,0.6-0.6,1-0.8c0.4-0.1,0.8-0.2,1.3-0.1c0.7,0.1,1.2,0.4,1.5,1
					c0.3,0.5,0.5,1.1,0.4,1.9l0,0.3c-0.1,0.5-0.3,0.9-0.5,1.3c-0.3,0.4-0.6,0.6-1,0.7c-0.4,0.1-0.8,0.2-1.3,0.1
					c-0.7-0.1-1.2-0.5-1.6-1C94.3,30.6,94.2,29.9,94.4,29.1L94.4,29.1z M95.5,29.4c-0.1,0.5-0.1,0.9,0.1,1.3
					c0.2,0.3,0.4,0.5,0.8,0.6c0.4,0.1,0.7,0,1-0.3c0.3-0.3,0.5-0.7,0.6-1.2c0.1-0.5,0.1-0.9-0.1-1.3c-0.2-0.3-0.4-0.5-0.8-0.6
					c-0.4-0.1-0.7,0-1,0.3C95.8,28.4,95.6,28.8,95.5,29.4z"/>
				<path class="st0" d="M107.4,32.8c-0.3,0.7-0.7,1.1-1.3,1.4c-0.6,0.2-1.2,0.2-2,0c-0.5-0.2-0.9-0.4-1.3-0.8
					c-0.3-0.4-0.5-0.8-0.6-1.3c-0.1-0.5,0-1.1,0.2-1.7l0.2-0.6c0.2-0.6,0.5-1.1,0.9-1.5c0.4-0.4,0.8-0.7,1.3-0.8
					c0.5-0.1,1-0.1,1.5,0.1c0.7,0.2,1.2,0.6,1.6,1.1c0.3,0.5,0.4,1.2,0.2,1.9l-1.1-0.4c0.1-0.5,0.1-0.9-0.1-1.1
					c-0.2-0.3-0.4-0.5-0.9-0.6c-0.5-0.2-0.9-0.1-1.3,0.2c-0.4,0.3-0.7,0.8-0.9,1.5l-0.2,0.6c-0.2,0.7-0.3,1.3-0.1,1.7
					c0.1,0.5,0.4,0.8,0.9,0.9c0.4,0.1,0.8,0.2,1.1,0c0.3-0.1,0.5-0.4,0.7-0.9L107.4,32.8z"/>
				<path class="st0" d="M108.3,32.7c0.2-0.5,0.5-0.8,0.8-1.1c0.3-0.3,0.7-0.5,1.1-0.5c0.4-0.1,0.8,0,1.3,0.2
					c0.6,0.3,1.1,0.7,1.3,1.3c0.2,0.6,0.2,1.2,0,1.9l-0.1,0.2c-0.2,0.5-0.5,0.8-0.8,1.1c-0.3,0.3-0.7,0.5-1.1,0.5
					c-0.4,0.1-0.8,0-1.3-0.2c-0.7-0.3-1.1-0.7-1.3-1.3C107.9,34.2,107.9,33.5,108.3,32.7L108.3,32.7z M109.3,33.3
					c-0.2,0.5-0.3,0.9-0.2,1.3c0.1,0.4,0.3,0.6,0.7,0.8c0.4,0.2,0.7,0.1,1-0.1c0.3-0.2,0.6-0.6,0.8-1.1c0.2-0.5,0.3-0.9,0.2-1.3
					c-0.1-0.4-0.3-0.6-0.7-0.8c-0.3-0.1-0.7-0.1-1,0.1C109.8,32.4,109.5,32.7,109.3,33.3z"/>
				<path class="st0" d="M115.6,33.3l-0.2,0.5c0.5-0.2,1.1-0.2,1.6,0.1c0.9,0.5,1.1,1.3,0.6,2.4l-1.6,3l-1-0.5l1.5-2.9
					c0.1-0.3,0.2-0.5,0.1-0.7c-0.1-0.2-0.2-0.4-0.5-0.5c-0.4-0.2-0.8-0.2-1.2,0.1l-1.7,3.2l-1-0.5l2.4-4.5L115.6,33.3z"/>
				<path class="st0" d="M118.2,37.5c0.4-0.7,0.9-1.1,1.5-1.3c0.6-0.2,1.1-0.1,1.6,0.2c0.5,0.3,0.8,0.7,0.8,1.2l0.3-0.4l0.9,0.6
					l-2.7,4.2c-0.4,0.6-0.8,0.9-1.4,1c-0.6,0.1-1.1,0-1.7-0.4c-0.3-0.2-0.6-0.5-0.8-0.8c-0.2-0.3-0.3-0.6-0.4-1l0.8-0.3
					c0.1,0.5,0.3,0.9,0.8,1.2c0.3,0.2,0.6,0.3,0.9,0.2c0.3-0.1,0.6-0.3,0.8-0.6l0.2-0.3c-0.5,0.1-0.9,0.1-1.4-0.2
					c-0.5-0.3-0.8-0.8-0.9-1.4C117.5,38.9,117.7,38.2,118.2,37.5z M119.1,38.2c-0.3,0.4-0.4,0.8-0.4,1.2c0,0.4,0.2,0.6,0.5,0.8
					c0.4,0.2,0.8,0.3,1.2,0.1l1.2-1.9c0-0.4-0.2-0.8-0.5-1c-0.3-0.2-0.6-0.2-1-0.1C119.7,37.4,119.4,37.7,119.1,38.2z"/>
				<path class="st0" d="M126,41c-0.1-0.1-0.2-0.2-0.4-0.3c-0.4-0.3-0.8-0.4-1.2-0.1l-2.1,2.8l-0.9-0.7l3-4.1l0.9,0.6l-0.3,0.5
					c0.5-0.2,0.9-0.1,1.3,0.1c0.1,0.1,0.2,0.2,0.3,0.3L126,41z"/>
				<path class="st0" d="M125.7,46.1c-0.6-0.5-0.9-1-0.9-1.7c-0.1-0.6,0.2-1.2,0.7-1.8l0.1-0.1c0.3-0.4,0.7-0.7,1.1-0.9
					c0.4-0.2,0.8-0.2,1.2-0.2c0.4,0.1,0.8,0.2,1.1,0.5c0.5,0.4,0.8,1,0.8,1.5c0,0.6-0.3,1.2-0.8,1.8l-0.3,0.4l-2.5-2.1
					c-0.2,0.3-0.4,0.7-0.3,1c0,0.3,0.2,0.6,0.5,0.9c0.4,0.3,0.9,0.4,1.4,0.3l0.1,0.8c-0.4,0.1-0.7,0.1-1.1,0
					C126.3,46.6,126,46.4,125.7,46.1z M128.4,42.7c-0.2-0.2-0.5-0.3-0.8-0.2c-0.3,0-0.6,0.2-0.9,0.5l1.7,1.4l0.1-0.1
					c0.2-0.3,0.3-0.6,0.3-0.9C128.7,43.1,128.6,42.9,128.4,42.7z"/>
				<path class="st0" d="M130.8,48.9c0.1-0.1,0.2-0.3,0.1-0.5c0-0.2-0.2-0.5-0.4-0.8c-0.2-0.3-0.4-0.6-0.5-0.9
					c-0.2-0.6-0.1-1.1,0.2-1.5c0.3-0.3,0.7-0.4,1.2-0.4c0.5,0,0.9,0.3,1.3,0.7c0.4,0.4,0.7,0.9,0.7,1.4c0.1,0.5-0.1,0.9-0.4,1.2
					l-0.8-0.8c0.2-0.2,0.2-0.3,0.2-0.6c0-0.2-0.1-0.4-0.3-0.6c-0.2-0.2-0.4-0.3-0.6-0.3c-0.2,0-0.4,0-0.5,0.2
					c-0.1,0.1-0.2,0.3-0.1,0.4c0,0.2,0.2,0.5,0.4,0.8c0.2,0.4,0.4,0.7,0.5,1c0.1,0.3,0.1,0.5,0.1,0.8c0,0.2-0.2,0.4-0.4,0.6
					c-0.3,0.3-0.7,0.5-1.2,0.4c-0.5-0.1-0.9-0.3-1.4-0.7c-0.3-0.3-0.5-0.6-0.6-0.9c-0.1-0.3-0.2-0.7-0.1-1c0.1-0.3,0.2-0.6,0.4-0.8
					l0.8,0.8c-0.2,0.2-0.2,0.4-0.2,0.7c0,0.2,0.2,0.5,0.4,0.7c0.2,0.2,0.4,0.3,0.6,0.4C130.6,49.1,130.7,49,130.8,48.9z"/>
				<path class="st0" d="M134.2,52.5c0.2-0.1,0.2-0.3,0.2-0.5c0-0.2-0.1-0.5-0.3-0.8c-0.2-0.3-0.3-0.7-0.4-0.9
					c-0.2-0.6-0.1-1.1,0.3-1.4c0.3-0.3,0.7-0.4,1.2-0.3c0.5,0.1,0.9,0.3,1.3,0.8c0.4,0.5,0.6,0.9,0.6,1.4c0,0.5-0.1,0.9-0.5,1.2
					l-0.8-0.9c0.2-0.1,0.2-0.3,0.2-0.5c0-0.2-0.1-0.4-0.3-0.6c-0.2-0.2-0.3-0.3-0.5-0.3c-0.2,0-0.4,0-0.5,0.1
					c-0.1,0.1-0.2,0.3-0.2,0.4c0,0.2,0.1,0.5,0.4,0.9c0.2,0.4,0.4,0.7,0.4,1c0.1,0.3,0.1,0.5,0,0.8c-0.1,0.2-0.2,0.4-0.4,0.6
					c-0.3,0.3-0.7,0.4-1.2,0.3c-0.5-0.1-0.9-0.4-1.3-0.8c-0.3-0.3-0.5-0.6-0.6-1c-0.1-0.3-0.1-0.7,0-1c0.1-0.3,0.2-0.6,0.5-0.8
					l0.7,0.8c-0.2,0.2-0.3,0.4-0.3,0.6c0,0.2,0.1,0.5,0.3,0.7c0.2,0.2,0.4,0.4,0.6,0.4C133.9,52.7,134,52.7,134.2,52.5z"/>
				<path class="st0" d="M136.4,53.2c0.4-0.3,0.8-0.5,1.3-0.6c0.4-0.1,0.9,0,1.2,0.1c0.4,0.2,0.7,0.4,1,0.8c0.4,0.6,0.6,1.1,0.5,1.7
					c-0.1,0.6-0.4,1.1-1,1.6l-0.2,0.2c-0.4,0.3-0.8,0.5-1.3,0.6c-0.4,0.1-0.8,0-1.2-0.1c-0.4-0.2-0.7-0.4-1-0.8
					c-0.4-0.6-0.6-1.2-0.5-1.8C135.3,54.3,135.7,53.7,136.4,53.2L136.4,53.2z M137,54.2c-0.4,0.3-0.7,0.6-0.8,1
					c-0.1,0.4,0,0.7,0.2,1c0.2,0.3,0.5,0.5,0.9,0.5c0.4,0,0.8-0.2,1.3-0.5c0.4-0.3,0.7-0.6,0.8-1c0.1-0.4,0.1-0.7-0.2-1
					c-0.2-0.3-0.5-0.4-0.9-0.4C137.9,53.7,137.5,53.9,137,54.2z"/>
				<path class="st0" d="M141.6,66.1l-0.6-1l2.8-5l-4.2,2.4l-0.6-1l6-3.3l0.6,1l-2.8,5.1l4.3-2.4l0.6,1L141.6,66.1z"/>
				<path class="st0" d="M143.3,69.9c0.1-0.1,0.2-0.2,0.4-0.3c-0.5-0.2-0.8-0.5-1.1-1c-0.2-0.5-0.2-0.9-0.1-1.3
					c0.1-0.4,0.4-0.7,0.8-0.9c0.5-0.2,1-0.2,1.4,0c0.4,0.3,0.8,0.7,1.1,1.4l0.3,0.6l0.3-0.1c0.2-0.1,0.4-0.3,0.5-0.5
					c0.1-0.2,0.1-0.4-0.1-0.7c-0.1-0.2-0.3-0.4-0.4-0.5c-0.2-0.1-0.4-0.1-0.6,0l-0.5-1c0.3-0.1,0.5-0.1,0.8-0.1
					c0.3,0.1,0.6,0.2,0.8,0.5s0.5,0.5,0.6,0.9c0.2,0.5,0.3,1,0.2,1.5c-0.1,0.4-0.4,0.8-0.9,1l-2.1,0.9c-0.4,0.2-0.7,0.4-0.9,0.6
					l-0.1,0L143.3,69.9z M143.5,68.4c0.1,0.2,0.2,0.4,0.4,0.5c0.2,0.1,0.4,0.2,0.6,0.2l0.9-0.4l-0.2-0.6c-0.2-0.4-0.4-0.6-0.6-0.8
					c-0.2-0.1-0.5-0.1-0.7,0c-0.2,0.1-0.3,0.2-0.4,0.4C143.4,68,143.4,68.2,143.5,68.4z"/>
				<path class="st0" d="M145.5,73.4c0.1,0.3,0.3,0.5,0.5,0.6c0.2,0.1,0.4,0.1,0.7,0.1l0.4,1c-0.3,0.1-0.6,0.1-0.9,0
					c-0.3-0.1-0.6-0.2-0.9-0.5c-0.3-0.2-0.4-0.5-0.6-0.9c-0.2-0.7-0.2-1.3,0.1-1.8c0.3-0.5,0.8-1,1.6-1.2l0.1,0c0.7-0.3,1.4-0.3,2,0
					c0.6,0.2,1,0.7,1.2,1.4c0.2,0.6,0.2,1.1,0,1.6c-0.2,0.5-0.6,0.8-1.1,1l-0.4-1c0.3-0.1,0.5-0.3,0.6-0.5c0.1-0.2,0.1-0.5,0-0.8
					c-0.1-0.3-0.3-0.6-0.7-0.7c-0.3-0.1-0.7-0.1-1.3,0.1l-0.2,0.1c-0.5,0.2-0.9,0.4-1.1,0.7C145.5,72.8,145.4,73.1,145.5,73.4z"/>
				<path class="st0" d="M146,77.6l-0.3-1.1l4.9-1.4l0.3,1.1L146,77.6z M151.8,74.7c0.2,0,0.3,0,0.5,0c0.1,0.1,0.2,0.2,0.3,0.4
					c0.1,0.2,0,0.4,0,0.5c-0.1,0.1-0.2,0.2-0.4,0.3c-0.2,0-0.3,0-0.5,0c-0.1-0.1-0.2-0.2-0.3-0.4c-0.1-0.2,0-0.4,0-0.5
					C151.5,74.8,151.7,74.7,151.8,74.7z"/>
				<path class="st0" d="M148.8,77.9c0.5-0.1,0.9-0.1,1.4,0c0.4,0.1,0.8,0.3,1.1,0.6c0.3,0.3,0.5,0.7,0.6,1.1
					c0.2,0.7,0.1,1.3-0.3,1.8c-0.3,0.5-0.9,0.9-1.6,1.1l-0.3,0.1c-0.5,0.1-0.9,0.1-1.4,0c-0.4-0.1-0.8-0.3-1.1-0.6
					c-0.3-0.3-0.5-0.7-0.6-1.1c-0.2-0.7,0-1.3,0.3-1.8S148,78.1,148.8,77.9L148.8,77.9z M149,79.1c-0.5,0.1-0.9,0.3-1.1,0.6
					c-0.2,0.3-0.3,0.6-0.2,1c0.1,0.4,0.3,0.6,0.6,0.8c0.3,0.1,0.8,0.2,1.4,0c0.5-0.1,0.9-0.3,1.1-0.6c0.2-0.3,0.3-0.6,0.2-1
					c-0.1-0.4-0.3-0.6-0.6-0.8C150,78.9,149.5,78.9,149,79.1z"/>
				<path class="st0" d="M152.6,84.3l-0.6,0.1c0.5,0.3,0.8,0.8,0.9,1.4c0.1,1.1-0.4,1.7-1.6,1.9l-3.3,0.5l-0.2-1.1l3.3-0.4
					c0.3,0,0.5-0.1,0.7-0.3c0.1-0.2,0.2-0.4,0.1-0.7c-0.1-0.5-0.3-0.8-0.8-0.9l-3.6,0.5l-0.2-1.1l5-0.7L152.6,84.3z"/>
				<path class="st0" d="M148.3,92.1c0.1-0.1,0.2-0.1,0.5-0.2c-0.4-0.3-0.6-0.8-0.7-1.3c0-0.5,0.1-0.9,0.3-1.3
					c0.3-0.3,0.6-0.5,1-0.6c0.5,0,1,0.1,1.3,0.5c0.3,0.4,0.5,0.9,0.6,1.7l0.1,0.7l0.3,0c0.3,0,0.5-0.1,0.6-0.3
					c0.1-0.2,0.2-0.4,0.2-0.7c0-0.3-0.1-0.5-0.2-0.6c-0.1-0.2-0.3-0.2-0.5-0.2l-0.1-1.1c0.3,0,0.5,0.1,0.8,0.2
					c0.3,0.2,0.5,0.4,0.6,0.7c0.2,0.3,0.3,0.7,0.3,1c0,0.6-0.1,1.1-0.3,1.5c-0.3,0.4-0.7,0.6-1.2,0.6l-2.3,0.2
					c-0.5,0-0.8,0.1-1.1,0.3l-0.1,0L148.3,92.1z M149,90.8c0,0.2,0.1,0.4,0.2,0.6c0.1,0.2,0.3,0.3,0.5,0.4l1-0.1l0-0.6
					c0-0.4-0.1-0.7-0.3-0.9c-0.2-0.2-0.4-0.3-0.6-0.3c-0.2,0-0.4,0.1-0.5,0.3C149.1,90.4,149,90.6,149,90.8z"/>
				<path class="st0" d="M148.3,95.4v-1.1l7.2,0l0,1.1L148.3,95.4z"/>
			</g>
		</g>
	</g>
</g>
</svg>
